<svg width="30" height="30" viewBox="0 0 30 30" fill="none" xmlns="http://www.w3.org/2000/svg">
<mask id="mask0_678_1360" style="mask-type:alpha" maskUnits="userSpaceOnUse" x="0" y="0" width="30" height="30">
<rect width="30" height="30" fill="#D9D9D9"/>
</mask>
<g mask="url(#mask0_678_1360)">
<path d="M14.9375 22.4998C15.375 22.4998 15.7448 22.3487 16.0469 22.0466C16.349 21.7445 16.5 21.3748 16.5 20.9373C16.5 20.4998 16.349 20.13 16.0469 19.8279C15.7448 19.5258 15.375 19.3748 14.9375 19.3748C14.5 19.3748 14.1302 19.5258 13.8281 19.8279C13.526 20.13 13.375 20.4998 13.375 20.9373C13.375 21.3748 13.526 21.7445 13.8281 22.0466C14.1302 22.3487 14.5 22.4998 14.9375 22.4998ZM13.8125 17.6873H16.125C16.125 16.9998 16.2031 16.4581 16.3594 16.0623C16.5156 15.6664 16.9583 15.1248 17.6875 14.4373C18.2292 13.8956 18.6562 13.38 18.9688 12.8904C19.2812 12.4008 19.4375 11.8123 19.4375 11.1248C19.4375 9.95809 19.0104 9.06226 18.1563 8.43726C17.3021 7.81226 16.2917 7.49976 15.125 7.49976C13.9375 7.49976 12.974 7.81226 12.2344 8.43726C11.4948 9.06226 10.9792 9.81226 10.6875 10.6873L12.75 11.4998C12.8542 11.1248 13.0885 10.7185 13.4531 10.281C13.8177 9.84351 14.375 9.62476 15.125 9.62476C15.7917 9.62476 16.2917 9.80705 16.625 10.1716C16.9583 10.5362 17.125 10.9373 17.125 11.3748C17.125 11.7914 17 12.182 16.75 12.5466C16.5 12.9112 16.1875 13.2498 15.8125 13.5623C14.8958 14.3748 14.3333 14.9893 14.125 15.406C13.9167 15.8227 13.8125 16.5831 13.8125 17.6873ZM15 27.4998C13.2708 27.4998 11.6458 27.1716 10.125 26.5154C8.60417 25.8591 7.28125 24.9685 6.15625 23.8435C5.03125 22.7185 4.14063 21.3956 3.48438 19.8748C2.82812 18.3539 2.5 16.7289 2.5 14.9998C2.5 13.2706 2.82812 11.6456 3.48438 10.1248C4.14063 8.60392 5.03125 7.28101 6.15625 6.15601C7.28125 5.03101 8.60417 4.14038 10.125 3.48413C11.6458 2.82788 13.2708 2.49976 15 2.49976C16.7292 2.49976 18.3542 2.82788 19.875 3.48413C21.3958 4.14038 22.7188 5.03101 23.8438 6.15601C24.9688 7.28101 25.8594 8.60392 26.5156 10.1248C27.1719 11.6456 27.5 13.2706 27.5 14.9998C27.5 16.7289 27.1719 18.3539 26.5156 19.8748C25.8594 21.3956 24.9688 22.7185 23.8438 23.8435C22.7188 24.9685 21.3958 25.8591 19.875 26.5154C18.3542 27.1716 16.7292 27.4998 15 27.4998ZM15 24.9998C17.7917 24.9998 20.1562 24.031 22.0938 22.0935C24.0312 20.156 25 17.7914 25 14.9998C25 12.2081 24.0312 9.84351 22.0938 7.90601C20.1562 5.96851 17.7917 4.99976 15 4.99976C12.2083 4.99976 9.84375 5.96851 7.90625 7.90601C5.96875 9.84351 5 12.2081 5 14.9998C5 17.7914 5.96875 20.156 7.90625 22.0935C9.84375 24.031 12.2083 24.9998 15 24.9998Z" fill="#1C1B1F"/>
</g>
</svg>
