<svg width="154" height="23" viewBox="0 0 154 23" fill="none" xmlns="http://www.w3.org/2000/svg">
<g clip-path="url(#clip0_64_410)">
<path d="M18.896 0H1.104C0.494 0 0 0.494 0 1.104V18.897C0 19.506 0.494 20 1.104 20H10.684V12.255H8.076V9.237H10.682V7.01C10.682 4.427 12.26 3.02 14.565 3.02C15.669 3.02 16.617 3.102 16.894 3.139V5.839H15.296C14.042 5.839 13.8 6.436 13.8 7.309V9.237H16.789L16.399 12.255H13.799V20H18.897C19.505 20 19.999 19.506 19.999 18.896V1.104C20 0.494 19.506 0 18.896 0Z" fill="black"/>
</g>
<g clip-path="url(#clip1_64_410)">
<path d="M43.333 0C37.811 0 33.333 4.478 33.333 10C33.333 15.523 37.811 20 43.333 20C48.856 20 53.333 15.523 53.333 10C53.333 4.478 48.856 0 43.333 0ZM47.034 14.077C45.282 14.197 41.381 14.197 39.632 14.077C37.735 13.947 37.514 13.018 37.5 10C37.514 6.976 37.737 6.053 39.632 5.923C41.381 5.803 45.283 5.803 47.034 5.923C48.932 6.053 49.152 6.982 49.167 10C49.152 13.024 48.929 13.947 47.034 14.077ZM41.667 8.048L45.764 9.997L41.667 11.952V8.048Z" fill="black"/>
</g>
<path d="M87.001 1.924C86.2521 2.25598 85.4575 2.47374 84.644 2.57C85.5011 2.05762 86.1424 1.2507 86.448 0.300004C85.6424 0.778067 84.7611 1.11492 83.842 1.296C83.4582 0.886271 82.9944 0.559798 82.4791 0.336853C81.9639 0.113909 81.4084 -0.000747251 80.847 3.66472e-06C78.198 3.66472e-06 76.252 2.472 76.85 5.038C75.2186 4.95637 73.6225 4.53251 72.1656 3.79394C70.7086 3.05538 69.4232 2.01862 68.393 0.751004C67.8687 1.65448 67.7083 2.7237 67.9442 3.74128C68.1801 4.75885 68.7947 5.64838 69.663 6.229C69.0114 6.20909 68.3739 6.03353 67.804 5.717C67.759 7.618 69.121 9.397 71.094 9.792C70.4897 9.95608 69.8559 9.98003 69.241 9.862C69.5029 10.6776 70.0133 11.3909 70.7009 11.902C71.3884 12.413 72.2185 12.6963 73.075 12.712C71.3552 14.0611 69.1702 14.6725 67 14.412C68.8763 15.6174 71.0599 16.2572 73.29 16.255C80.908 16.255 85.212 9.821 84.952 4.05C85.7553 3.46912 86.4488 2.74991 87 1.926L87.001 1.924Z" fill="black"/>
<g clip-path="url(#clip2_64_410)">
<path d="M110.001 0C104.479 0 100.001 4.477 100.001 10C100.001 14.237 102.637 17.855 106.357 19.312C106.269 18.521 106.19 17.307 106.392 16.444C106.574 15.664 107.564 11.474 107.564 11.474C107.564 11.474 107.265 10.874 107.265 9.988C107.265 8.598 108.071 7.56 109.075 7.56C109.927 7.56 110.339 8.2 110.339 8.968C110.339 9.826 109.794 11.108 109.511 12.298C109.275 13.293 110.011 14.105 110.991 14.105C112.769 14.105 114.135 12.231 114.135 9.525C114.135 7.132 112.415 5.457 109.958 5.457C107.113 5.457 105.443 7.592 105.443 9.797C105.443 10.656 105.774 11.578 106.188 12.078C106.223 12.1159 106.248 12.1624 106.26 12.2129C106.273 12.2634 106.271 12.3161 106.257 12.366L105.979 13.499C105.935 13.682 105.834 13.722 105.644 13.633C104.395 13.052 103.614 11.226 103.614 9.759C103.614 6.605 105.906 3.707 110.222 3.707C113.691 3.707 116.387 6.18 116.387 9.483C116.387 12.93 114.214 15.703 111.197 15.703C110.184 15.703 109.232 15.178 108.906 14.555L108.283 16.933C108.057 17.802 107.448 18.891 107.039 19.554C107.976 19.844 108.97 20 110.001 20C115.523 20 120.001 15.523 120.001 10C120.001 4.477 115.523 0 110.001 0Z" fill="black"/>
</g>
<g clip-path="url(#clip3_64_410)">
<path d="M143.334 1.802C146.004 1.802 146.321 1.812 147.376 1.861C150.086 1.984 151.352 3.27 151.476 5.96C151.524 7.014 151.533 7.33 151.533 10C151.533 12.672 151.523 12.988 151.475 14.042C151.351 16.729 150.089 18.017 147.376 18.141C146.321 18.189 146.006 18.199 143.334 18.199C140.664 18.199 140.348 18.189 139.294 18.141C136.577 18.017 135.318 16.725 135.194 14.041C135.146 12.987 135.136 12.671 135.136 10C135.136 7.33 135.146 7.014 135.194 5.96C135.318 3.27 136.581 1.983 139.294 1.86C140.348 1.812 140.664 1.802 143.334 1.802ZM143.334 0C140.619 0 140.279 0.012 139.212 0.06C135.58 0.227 133.561 2.242 133.395 5.877C133.346 6.944 133.335 7.284 133.335 10C133.335 12.716 133.346 13.057 133.395 14.123C133.561 17.755 135.576 19.773 139.211 19.94C140.279 19.988 140.619 20 143.334 20C146.05 20 146.391 19.988 147.458 19.94C151.086 19.773 153.109 17.758 153.274 14.123C153.323 13.057 153.334 12.716 153.334 10C153.334 7.284 153.323 6.944 153.274 5.878C153.111 2.249 151.094 0.228 147.459 0.06C146.391 0.01 146.05 0 143.334 0ZM143.334 4.865C141.972 4.865 140.666 5.40601 139.703 6.36901C138.74 7.33201 138.199 8.63811 138.199 10C138.199 11.3619 138.74 12.668 139.703 13.631C140.666 14.594 141.972 15.135 143.334 15.135C144.696 15.135 146.002 14.594 146.965 13.631C147.928 12.668 148.469 11.3619 148.469 10C148.469 8.63811 147.928 7.33201 146.965 6.36901C146.002 5.40601 144.696 4.865 143.334 4.865ZM143.334 13.333C142.45 13.333 141.602 12.9818 140.977 12.3568C140.352 11.7317 140.001 10.884 140.001 10C140.001 9.11603 140.352 8.26827 140.977 7.64321C141.602 7.01815 142.45 6.667 143.334 6.667C144.218 6.667 145.066 7.01815 145.691 7.64321C146.316 8.26827 146.667 9.11603 146.667 10C146.667 10.884 146.316 11.7317 145.691 12.3568C145.066 12.9818 144.218 13.333 143.334 13.333ZM148.673 3.463C148.515 3.46293 148.359 3.49391 148.214 3.55415C148.068 3.6144 147.936 3.70273 147.824 3.81412C147.713 3.9255 147.624 4.05775 147.564 4.20332C147.504 4.34888 147.473 4.50491 147.472 4.6625C147.472 4.82009 147.503 4.97614 147.564 5.12176C147.624 5.26737 147.712 5.3997 147.824 5.51117C147.935 5.62265 148.067 5.7111 148.213 5.77146C148.358 5.83183 148.514 5.86293 148.672 5.863C148.99 5.863 149.295 5.73657 149.52 5.51153C149.746 5.28648 149.872 4.98126 149.872 4.663C149.872 4.34474 149.746 4.03952 149.52 3.81447C149.295 3.58943 148.99 3.463 148.672 3.463H148.673Z" fill="black"/>
</g>
<defs>
<clipPath id="clip0_64_410">
<rect width="20" height="20" fill="white"/>
</clipPath>
<clipPath id="clip1_64_410">
<rect width="21" height="20" fill="white" transform="translate(33)"/>
</clipPath>
<clipPath id="clip2_64_410">
<rect width="20" height="20" fill="white" transform="translate(100.001)"/>
</clipPath>
<clipPath id="clip3_64_410">
<rect width="21" height="20" fill="white" transform="translate(133.001)"/>
</clipPath>
</defs>
</svg>
