<svg width="30" height="30" viewBox="0 0 30 30" fill="none" xmlns="http://www.w3.org/2000/svg">
<mask id="mask0_678_1363" style="mask-type:alpha" maskUnits="userSpaceOnUse" x="0" y="0" width="30" height="30">
<rect width="30" height="30" fill="#D9D9D9"/>
</mask>
<g mask="url(#mask0_678_1363)">
<path d="M5 23.7502V21.2502H7.5V12.5002C7.5 10.7711 8.02083 9.23462 9.0625 7.89087C10.1042 6.54712 11.4583 5.66691 13.125 5.25024V4.37524C13.125 3.85441 13.3073 3.4117 13.6719 3.04712C14.0365 2.68254 14.4792 2.50024 15 2.50024C15.5208 2.50024 15.9635 2.68254 16.3281 3.04712C16.6927 3.4117 16.875 3.85441 16.875 4.37524V5.25024C18.5417 5.66691 19.8958 6.54712 20.9375 7.89087C21.9792 9.23462 22.5 10.7711 22.5 12.5002V21.2502H25V23.7502H5ZM15 27.5002C14.3125 27.5002 13.724 27.2555 13.2344 26.7659C12.7448 26.2763 12.5 25.6877 12.5 25.0002H17.5C17.5 25.6877 17.2552 26.2763 16.7656 26.7659C16.276 27.2555 15.6875 27.5002 15 27.5002Z" fill="#1C1B1F"/>
</g>
</svg>
