<svg width="24" height="24" viewBox="0 0 24 24" fill="none" xmlns="http://www.w3.org/2000/svg">
<path d="M0 9.375H24V14.625H0V9.375Z" fill="#E6E7E8"/>
<path d="M20.25 3.75H3.75C1.26488 3.75 0 5.59688 0 7.875V9.375H24V7.875C24 5.59688 22.7351 3.75 20.25 3.75ZM0 16.125C0 18.4031 1.26488 20.25 3.75 20.25H20.25C22.7351 20.25 24 18.4031 24 16.125V14.625H0V16.125Z" fill="#74ACDF"/>
<path fill-rule="evenodd" clip-rule="evenodd" d="M12.2546 10.4617C12.3709 10.317 12.3829 10.1726 12.3859 10.02C12.3892 9.8906 12.4084 9.76048 12.4316 9.63073C12.4403 9.58235 12.4744 9.53435 12.5081 9.4976C12.5215 9.48617 12.5373 9.47777 12.5542 9.47298C12.5712 9.46819 12.589 9.46712 12.6064 9.46985C12.6248 9.47473 12.642 9.52498 12.6405 9.5546C12.6379 9.60598 12.6139 9.65698 12.6105 9.70835C12.603 9.81673 12.603 9.92323 12.6026 10.0305C12.6011 10.1389 12.6019 10.2461 12.6019 10.3669C12.6791 10.2064 12.7526 10.0519 12.8284 9.89848C12.8674 9.81315 12.9117 9.73036 12.9611 9.6506C12.9802 9.62398 13.0294 9.61648 13.0639 9.60073C13.077 9.63635 13.1104 9.67573 13.1029 9.70573C13.0582 9.86435 13.0042 10.0207 12.9514 10.1771C12.9041 10.3204 12.8535 10.461 12.7943 10.6275C12.9457 10.5427 13.0121 10.4284 13.0714 10.3027C13.1362 10.1647 13.212 10.0301 13.2979 9.90448C13.3387 9.8456 13.4149 9.77248 13.4944 9.83998C13.515 9.85723 13.4771 9.97123 13.4407 10.0204C13.356 10.1351 13.3046 10.2566 13.2675 10.395C13.236 10.5131 13.1539 10.6185 13.0995 10.7186C13.1194 10.7029 13.1542 10.6736 13.1861 10.6436C13.3402 10.5056 13.4933 10.3657 13.6481 10.2281C13.6905 10.1902 13.7363 10.155 13.7861 10.131C13.8098 10.1194 13.8559 10.1287 13.8769 10.1452C13.8938 10.1569 13.896 10.206 13.8848 10.2266C13.8535 10.2822 13.8164 10.3344 13.7741 10.3822C13.596 10.5821 13.4164 10.7797 13.2202 10.9954C13.4081 10.9695 13.5266 10.8776 13.6403 10.7655C13.7295 10.6774 13.8334 10.6012 13.9343 10.5244C13.9641 10.5014 14.0005 10.4884 14.0381 10.4872C14.0887 10.4887 14.1386 10.5101 14.1874 10.5244C14.1604 10.5645 14.1439 10.6215 14.106 10.6436C13.9583 10.7268 13.8318 10.843 13.7363 10.983C13.6796 11.067 13.5735 11.115 13.4734 11.1926C13.6905 11.115 13.8911 11.0434 14.0925 10.9744C14.1705 10.9477 14.2511 10.9256 14.3317 10.9121C14.3561 10.908 14.4026 10.932 14.4109 10.9537C14.4188 10.977 14.4037 11.0246 14.3835 11.0407C14.3302 11.0816 14.271 11.1157 14.2095 11.1439C13.9766 11.2571 13.743 11.3666 13.4918 11.4859C13.6946 11.5466 13.8536 11.4742 14.019 11.4127C14.1465 11.3659 14.2864 11.3486 14.4225 11.3359C14.4626 11.3321 14.5102 11.3872 14.553 11.4157C14.5144 11.4465 14.4773 11.5012 14.4341 11.505C14.2571 11.5241 14.1064 11.595 13.9523 11.6801C13.8506 11.7364 13.7186 11.7386 13.5994 11.7664C13.8806 11.7821 14.1619 11.7979 14.4435 11.8151C14.4469 11.8151 14.451 11.8144 14.4547 11.8162L14.6077 11.9036C14.559 11.9336 14.5106 11.9876 14.4589 11.991C14.2042 12.0146 13.947 12.0251 13.692 12.0409C13.653 12.0424 13.6144 12.0457 13.5506 12.051C13.7329 12.1852 13.9129 12.1744 14.0985 12.18C14.2316 12.1822 14.367 12.2287 14.4968 12.2707C14.5301 12.2809 14.5474 12.3431 14.571 12.3814C14.5294 12.3964 14.487 12.4222 14.4461 12.4222C14.391 12.4222 14.3355 12.399 14.2796 12.3896C14.232 12.3814 14.1814 12.366 14.136 12.3746C13.9414 12.4102 13.7497 12.438 13.5634 12.3281C13.5626 12.3375 13.56 12.3472 13.5577 12.3566C13.7689 12.456 13.9785 12.5554 14.1881 12.6559C14.2489 12.6851 14.3119 12.7151 14.3651 12.7556C14.3917 12.7762 14.4 12.8227 14.4158 12.858C14.3809 12.8722 14.3449 12.903 14.313 12.8989C14.2399 12.8887 14.1671 12.8632 14.0963 12.8389C13.8701 12.7616 13.6444 12.681 13.4089 12.597C13.4689 12.7444 13.5829 12.8175 13.8094 12.906C13.9159 12.9469 14.0145 13.0159 14.1045 13.086C14.1623 13.1314 14.2477 13.2082 14.1836 13.2832C14.1157 13.3639 14.0396 13.2739 13.9822 13.2292C13.8757 13.1471 13.7584 13.1021 13.6286 13.0665C13.5045 13.0316 13.3946 12.9457 13.284 12.8831C13.4295 13.0444 13.5829 13.2135 13.7344 13.383C13.7816 13.437 13.8323 13.4899 13.8671 13.5514C13.8863 13.5829 13.8746 13.6327 13.8757 13.6736C13.8341 13.6706 13.7801 13.6822 13.7516 13.6605C13.6387 13.5735 13.533 13.4764 13.4254 13.3815C13.2941 13.266 13.1651 13.1486 13.0196 13.0181C13.0489 13.2304 13.1651 13.3594 13.3024 13.4756C13.4171 13.5735 13.506 13.6901 13.5338 13.8405C13.5424 13.8847 13.5154 13.9346 13.5037 13.9819C13.4629 13.9575 13.4032 13.944 13.383 13.9076C13.2965 13.7572 13.176 13.629 13.0312 13.5334C12.9499 13.4782 12.9019 13.3729 12.8306 13.2799C12.864 13.3796 12.894 13.4711 12.9259 13.5626C12.9772 13.7081 13.0298 13.8525 13.0804 13.9984C13.0958 14.0367 13.1037 14.0777 13.1036 14.1191C13.101 14.151 13.0811 14.199 13.0586 14.2061C13.0316 14.214 12.9851 14.1934 12.9653 14.1679C12.9274 14.1221 12.9011 14.0662 12.8756 14.0134C12.7624 13.7801 12.651 13.545 12.5302 13.2904C12.4755 13.4625 12.5167 13.6001 12.5719 13.7389C12.6169 13.8536 12.6585 13.971 12.6825 14.0917C12.696 14.1574 12.6742 14.2331 12.6589 14.3014C12.6532 14.322 12.6143 14.3471 12.591 14.3464C12.5685 14.3464 12.5276 14.3171 12.5261 14.2987C12.5089 14.0625 12.3956 13.8645 12.2974 13.6575C12.2617 13.584 12.2737 13.4895 12.2475 13.404C12.2366 13.6312 12.225 13.8574 12.2134 14.0846C12.2104 14.1525 12.2119 14.2219 12.1927 14.2867C12.1804 14.3291 12.1376 14.3659 12.108 14.4037C12.0799 14.3647 12.0293 14.3272 12.0259 14.2856C12.0038 14.0344 11.9918 13.7824 11.9779 13.5319C11.9753 13.4767 11.9779 13.4212 11.9625 13.3635C11.88 13.4595 11.8352 13.5823 11.8365 13.7089C11.8365 13.8319 11.8474 13.9582 11.8305 14.0797C11.8196 14.1622 11.7761 14.2429 11.7341 14.3171C11.7191 14.3437 11.6662 14.3486 11.6299 14.3625C11.6175 14.3302 11.601 14.2987 11.5927 14.2646C11.5886 14.244 11.5976 14.2204 11.6029 14.1982C11.6411 14.0512 11.6595 13.9084 11.6186 13.7535C11.5946 13.6612 11.6149 13.557 11.6149 13.4501C11.5301 13.6264 11.4457 13.8015 11.361 13.9751C11.3295 14.04 11.2987 14.1064 11.2579 14.163C11.2372 14.1896 11.1896 14.1964 11.1551 14.2114C11.1405 14.1765 11.112 14.1386 11.1158 14.1056C11.127 14.0321 11.1518 13.9601 11.1769 13.8892C11.2556 13.6627 11.3362 13.4374 11.4247 13.1854C11.2519 13.2787 11.1911 13.4194 11.1263 13.5604C11.0701 13.6827 11.0012 13.7989 10.9207 13.9069C10.8784 13.9654 10.8022 14.0374 10.7235 13.971C10.7029 13.9552 10.7415 13.8397 10.7786 13.7887C10.8622 13.674 10.9132 13.5532 10.95 13.4145C10.9815 13.296 11.0651 13.1917 11.1244 13.0841C10.953 13.2375 10.7779 13.398 10.5994 13.5559C10.5493 13.6012 10.4948 13.6414 10.4366 13.6759C10.4137 13.689 10.365 13.6849 10.3459 13.6684C10.3294 13.6519 10.3238 13.602 10.3358 13.5795C10.3631 13.5255 10.4006 13.4775 10.4396 13.4321C10.6177 13.2334 10.7977 13.0365 10.9927 12.8201C10.785 12.846 10.6699 12.9649 10.5502 13.0864C10.4619 13.1721 10.3636 13.2469 10.2574 13.3091C10.1944 13.3492 10.0927 13.3965 10.0451 13.3121C9.99075 13.2142 10.1066 13.1809 10.1685 13.146C10.2874 13.074 10.3755 12.9791 10.4576 12.8677C10.5281 12.7725 10.6384 12.7057 10.734 12.6247L10.1227 12.8377C10.0657 12.8584 10.0095 12.8861 9.95137 12.8917C9.9045 12.8981 9.85462 12.876 9.80662 12.8666C9.831 12.8216 9.84562 12.756 9.88312 12.7354C10.0744 12.6337 10.2742 12.5419 10.4707 12.4462L10.7077 12.3307C10.5577 12.2741 10.4422 12.2932 10.2337 12.3844C10.134 12.4269 10.0299 12.4585 9.92325 12.4785C9.86376 12.488 9.80287 12.4834 9.7455 12.465C9.71287 12.456 9.69075 12.4136 9.66412 12.387C9.69075 12.3619 9.71625 12.3172 9.74625 12.3146C9.94425 12.2914 10.119 12.2171 10.2919 12.1162C10.3796 12.0649 10.5015 12.0697 10.6346 12.0439C10.3777 12.0311 10.1471 12.0206 9.91762 12.009C9.84208 12.0071 9.76688 11.9982 9.693 11.9824C9.66 11.9745 9.6375 11.9306 9.60938 11.904C9.63713 11.8781 9.6615 11.8354 9.69412 11.8267C9.76725 11.8091 9.843 11.8054 9.91837 11.8016C10.158 11.7889 10.3961 11.778 10.6665 11.7652C10.491 11.637 10.3245 11.622 10.1505 11.6452C10.0034 11.6656 9.85377 11.6343 9.72712 11.5567C9.68925 11.5331 9.67237 11.4769 9.6465 11.4352C9.69225 11.4221 9.74362 11.3887 9.783 11.3981C9.94331 11.4379 10.11 11.4451 10.2731 11.4195C10.4059 11.3989 10.5499 11.4502 10.6905 11.4709C10.4861 11.3737 10.2765 11.2751 10.0691 11.1731C9.99076 11.1369 9.91518 11.0949 9.843 11.0475C9.819 11.031 9.79912 10.9789 9.80737 10.9537C9.81487 10.9312 9.86662 10.9069 9.89587 10.9117C9.97312 10.9237 10.0489 10.9466 10.1231 10.9725C10.3504 11.0501 10.5757 11.1315 10.8109 11.2147C10.7527 11.0704 10.6372 10.9987 10.4115 10.9054C10.29 10.854 10.185 10.7632 10.0766 10.6867C10.051 10.664 10.033 10.6341 10.0249 10.6009C10.0177 10.5757 10.0204 10.5352 10.0361 10.5191C10.0519 10.5034 10.0897 10.5082 10.1175 10.5052C10.1216 10.5052 10.1257 10.5067 10.1284 10.509C10.3425 10.7437 10.7111 10.6924 10.9286 10.9309C10.9151 10.911 10.9016 10.89 10.8851 10.8724C10.731 10.7021 10.5765 10.5315 10.4235 10.3601C10.3895 10.3251 10.3614 10.2848 10.3402 10.2409C10.3286 10.2109 10.3275 10.1572 10.3451 10.1404C10.365 10.1224 10.4194 10.1231 10.4467 10.1381C10.4959 10.1632 10.5397 10.2011 10.5817 10.2394C10.7775 10.4141 10.9725 10.5911 11.1866 10.7835C11.1675 10.5979 11.0659 10.4895 10.962 10.3759C10.8656 10.2701 10.7876 10.1471 10.7032 10.0282C10.6907 10.0093 10.6846 9.98678 10.686 9.9641C10.6924 9.91948 10.7081 9.87598 10.7197 9.83135C10.7591 9.85273 10.8154 9.86548 10.8352 9.89848C10.9286 10.0575 11.0407 10.1884 11.1986 10.2919C11.2759 10.3444 11.3186 10.4501 11.385 10.5416C11.3764 10.5075 11.3734 10.4809 11.3636 10.4561C11.2972 10.2671 11.2294 10.0811 11.163 9.89135C11.1472 9.84973 11.1236 9.80585 11.1236 9.76348C11.1229 9.70873 11.142 9.65435 11.1521 9.59923C11.1979 9.62923 11.2635 9.64985 11.2852 9.69335C11.406 9.92285 11.5144 10.1599 11.6272 10.3939C11.6456 10.4302 11.664 10.4655 11.6888 10.5154C11.7473 10.3282 11.6872 10.179 11.6257 10.0245C11.5837 9.91274 11.5526 9.7972 11.5327 9.67948C11.5226 9.62735 11.538 9.5666 11.5564 9.51373C11.565 9.49085 11.604 9.46648 11.6306 9.46385C11.6505 9.4631 11.6906 9.49573 11.6921 9.51448C11.7146 9.74098 11.8114 9.9371 11.916 10.1351C11.9561 10.2109 11.9449 10.3151 11.9681 10.4062C11.9839 10.1284 12.0011 9.85123 12.0172 9.57298C12.018 9.55723 12.0146 9.5396 12.021 9.52873C12.048 9.4871 12.0761 9.4466 12.105 9.40723C12.135 9.44885 12.1898 9.4886 12.1924 9.5321C12.2156 9.81298 12.2272 10.0957 12.243 10.3789C12.2456 10.3987 12.249 10.4167 12.2546 10.4617ZM10.203 11.6047C10.3091 11.6141 10.419 11.6141 10.5233 11.6404C10.6196 11.664 10.7089 11.7187 10.8045 11.7502C10.851 11.7671 10.905 11.7611 10.9552 11.766C10.8026 11.6921 10.6549 11.6224 10.5 11.5867C10.4081 11.5657 10.3024 11.5972 10.203 11.6047C10.0549 11.5699 9.90675 11.5342 9.759 11.499C9.89025 11.6122 10.0448 11.6182 10.203 11.6047ZM13.7805 12.9521C13.8829 13.0264 13.9875 13.0987 14.0869 13.1775C14.109 13.194 14.1143 13.2341 14.127 13.2634C14.1428 13.2442 14.1499 13.2184 14.1394 13.2041C14.0546 13.0695 13.9421 12.9739 13.776 12.9547C13.6324 12.8707 13.4719 12.8107 13.371 12.6641C13.3322 12.613 13.2855 12.5684 13.2326 12.5321C13.1962 12.5055 13.149 12.4935 13.1063 12.4747C13.191 12.5827 13.2953 12.6562 13.3796 12.7485C13.4816 12.8661 13.6254 12.9391 13.7805 12.9521ZM10.4689 10.8562C10.3109 10.8006 10.1752 10.6952 10.0822 10.5559C10.0489 10.6706 10.3065 10.8765 10.4722 10.8536C10.4872 10.872 10.5022 10.8919 10.5202 10.9069C10.6286 10.9897 10.74 11.0696 10.8472 11.154C10.9024 11.1982 10.9492 11.2537 11.007 11.2954C11.0362 11.3167 11.0794 11.319 11.1165 11.3284C11.0404 11.2387 10.9455 11.1787 10.875 11.0989C10.7711 10.9742 10.6279 10.8887 10.4689 10.8562ZM10.2109 12.3394C10.3924 12.2659 10.5817 12.2554 10.7749 12.2659C10.8337 12.2685 10.8945 12.2535 10.9519 12.2377C10.9718 12.2321 10.9849 12.2021 11.0078 12.1744C10.812 12.1852 10.6343 12.1822 10.4621 12.2111C10.3736 12.2257 10.2964 12.297 10.2124 12.3424L9.80025 12.414L9.80588 12.4421C9.94988 12.4485 10.0905 12.4391 10.2109 12.3394ZM12.6724 12.9675C12.648 12.9562 12.6236 12.9465 12.5989 12.9364C12.5906 12.942 12.5824 12.9484 12.5741 12.9547C12.7219 13.3091 12.8685 13.665 13.0155 14.0201C13.0234 14.0179 13.0305 14.0145 13.0391 14.0122C12.9158 13.662 12.7935 13.3125 12.6705 12.9641C12.7492 13.0721 12.8509 13.1704 12.9015 13.2911C12.9821 13.4824 13.152 13.5589 13.3013 13.6661C13.1955 13.5424 13.0624 13.4366 12.9742 13.3027C12.8835 13.167 12.8595 12.9877 12.7065 12.8602C12.6915 12.9075 12.6825 12.9375 12.6724 12.9667M11.7412 10.698C11.6554 10.5292 11.5684 10.3594 11.484 10.1887C11.412 10.0436 11.3434 9.8966 11.2729 9.75148C11.2641 9.75472 11.2556 9.75861 11.2474 9.7631C11.3966 10.1209 11.5455 10.4801 11.6944 10.8386L11.7394 10.8292V10.6961L11.811 10.7861C11.811 10.6447 11.8136 10.5026 11.8102 10.3609C11.8087 10.302 11.8103 10.2322 11.781 10.1865C11.6681 10.0095 11.6239 9.81523 11.6059 9.61235C11.6059 9.60823 11.595 9.60598 11.5511 9.58085C11.5811 9.71735 11.5811 9.83885 11.6317 9.93298C11.7682 10.1786 11.7641 10.4351 11.7412 10.698ZM10.4497 13.6511C10.4632 13.6339 10.4741 13.6147 10.4906 13.6005C10.758 13.3582 11.0273 13.1164 11.2928 12.8722C11.3194 12.8475 11.3265 12.7999 11.3434 12.762C11.3066 12.7777 11.2609 12.7826 11.2357 12.8077C10.9897 13.0562 10.7452 13.3062 10.5022 13.5577C10.4782 13.5825 10.4674 13.6192 10.4497 13.65C10.3732 13.5941 10.4299 13.5544 10.4681 13.515C10.6995 13.2787 10.9324 13.0425 11.1645 12.8059C11.202 12.7676 11.2343 12.7252 11.2785 12.6731C11.1551 12.6825 10.3957 13.5109 10.3759 13.6406C10.401 13.6432 10.4257 13.647 10.4497 13.65M12.4789 13.1186C12.5685 13.2956 12.6585 13.4715 12.7474 13.65C12.8224 13.8022 12.8944 13.9564 12.9686 14.1097C12.9765 14.1067 12.9844 14.1019 12.993 14.0989C12.8366 13.7239 12.6818 13.3492 12.5261 12.975C12.5111 12.9765 12.4961 12.9784 12.4811 12.9814C12.4811 13.029 12.4811 13.0755 12.4804 13.122L12.3889 13.0012C12.399 13.2082 12.384 13.3916 12.4238 13.563C12.4751 13.7831 12.5707 13.992 12.6431 14.1949C12.6625 14.084 12.6419 13.9698 12.585 13.8727C12.4451 13.6342 12.456 13.3774 12.4789 13.1186ZM13.1801 11.337L13.1467 11.4326C13.1674 11.4334 13.191 11.4405 13.2075 11.4345C13.5668 11.283 13.9256 11.1296 14.2841 10.977C14.2822 10.9699 14.2785 10.9635 14.2766 10.9564L13.1764 11.3407C13.2836 11.2635 13.3928 11.1859 13.4993 11.1071C13.5791 11.0479 13.677 10.9987 13.7325 10.9207C13.8139 10.8075 13.902 10.7137 14.0246 10.6474C14.0692 10.6237 14.1068 10.5866 14.1476 10.5547C14.0576 10.5888 13.9724 10.6344 13.8941 10.6905C13.83 10.7355 13.7621 10.782 13.7167 10.8435C13.6362 10.957 13.5238 11.0441 13.3939 11.094C13.2795 11.1397 13.176 11.214 13.0687 11.2755L13.0811 11.3197C13.1156 11.3261 13.1471 11.3317 13.1801 11.337ZM11.055 12.4657C10.9436 12.5464 10.8427 12.6472 10.7209 12.7046C10.551 12.7834 10.4632 12.9191 10.383 13.0695C10.5004 12.9697 10.5994 12.8452 10.7276 12.7654C10.8608 12.6814 11.025 12.6461 11.1476 12.507L11.0527 12.4684C11.0584 12.4357 11.0651 12.4042 11.0779 12.3476L9.93338 12.8366C9.9375 12.8445 9.93975 12.8516 9.94275 12.8595C10.3132 12.7279 10.6845 12.5962 11.055 12.4657ZM11.8627 12.8734C12.1309 12.9574 12.1309 12.9574 12.3536 12.8767C12.3368 12.909 12.3244 12.9349 12.3079 12.9649C12.8201 12.9154 13.2352 12.372 13.1929 11.8215C13.1471 11.2267 12.6382 10.7899 12.0266 10.8191C11.4592 10.8476 11.007 11.3475 11.0175 11.9344C11.0276 12.4691 11.4817 12.9716 11.9572 12.9724C11.9302 12.9442 11.9029 12.9161 11.8627 12.8734ZM13.1542 12.3626L13.1374 12.4027C13.1925 12.4819 14.0947 12.8284 14.301 12.8377C13.9185 12.6791 13.5356 12.5212 13.1542 12.3626ZM12.1432 14.2901L12.1601 14.2916C12.1807 13.9024 12.201 13.5124 12.2156 13.1231C12.2175 13.098 12.186 13.0706 12.1691 13.044C12.1601 13.0489 12.1519 13.0519 12.1432 13.0556V14.2901ZM12.141 10.7704C12.2224 10.7145 12.2224 10.7145 12.1939 10.1512C12.1837 9.94273 12.1695 9.73348 12.1567 9.52423L12.141 9.52573V10.7704ZM12.9694 9.7601C12.9621 9.75572 12.9545 9.75208 12.9465 9.74923C12.9124 9.8186 12.8775 9.88798 12.8445 9.95848C12.7309 10.197 12.6157 10.4332 12.5059 10.6732C12.4807 10.7246 12.4395 10.7861 12.5295 10.8502C12.6795 10.4805 12.8239 10.1194 12.9694 9.7601ZM12.0761 13.0275C11.9921 13.1111 12.009 14.0231 12.0761 14.2901V13.0275ZM13.2405 11.841C13.2454 11.853 13.2499 11.8646 13.2555 11.877H14.4814C14.1048 11.8391 13.7271 11.8125 13.3489 11.7971C13.3136 11.7952 13.2773 11.8264 13.242 11.841M14.4949 11.9486H13.2525L13.2532 12.0079C13.6672 12.0165 14.0805 11.9715 14.4949 11.9486ZM9.7305 11.9216C9.7305 11.9329 9.7305 11.9434 9.72937 11.9542C9.91087 11.9644 10.0927 11.9764 10.2754 11.9857C10.4704 11.9966 10.6654 12.0094 10.8607 12.0142C10.8937 12.015 10.9279 11.9824 10.9612 11.9651C10.9312 11.9509 10.9005 11.925 10.8712 11.9242C10.491 11.9209 10.1111 11.9216 9.7305 11.9216ZM12.0769 9.5231L12.0619 9.52648C12.0413 9.90523 12.0203 10.284 12.0019 10.6627C12.0011 10.6961 12.0293 10.7325 12.0435 10.7677C12.0544 10.7635 12.0656 10.7599 12.0769 10.7569V9.52235M9.771 11.8609H10.9852C10.893 11.7889 9.96637 11.8121 9.771 11.8609ZM13.7554 10.2165L13.7393 10.2C13.4633 10.4527 13.1865 10.7059 12.9101 10.9575C12.8953 10.9694 12.8841 10.9852 12.8779 11.0032C12.8737 11.022 12.8794 11.0434 12.8809 11.0629C12.9007 11.0584 12.9244 11.0591 12.9379 11.0482C12.9724 11.0197 13.0016 10.9849 13.0331 10.9534C13.2735 10.7081 13.5142 10.4614 13.7554 10.2157M12.3446 10.7775C12.3645 10.7846 12.384 10.7925 12.4031 10.8004C12.4196 10.7689 12.441 10.7389 12.4504 10.7059C12.4826 10.5761 12.5119 10.4452 12.5426 10.3147C12.5546 10.2641 12.5846 10.2082 12.5734 10.1625C12.5239 9.95473 12.5445 9.7526 12.6026 9.55198C12.606 9.53773 12.5876 9.51785 12.5767 9.49535C12.5576 9.58685 12.5377 9.66073 12.5276 9.7361C12.5134 9.8351 12.4905 9.93748 12.501 10.0346C12.5167 10.1745 12.4984 10.3001 12.4451 10.4291C12.3994 10.5397 12.3769 10.6597 12.3446 10.7775ZM11.7364 12.9776C11.7196 12.9752 11.7027 12.9736 11.6857 12.9727L11.2717 14.0044C11.2796 14.0074 11.2882 14.0122 11.2976 14.0152C11.4439 13.7074 11.5912 13.3991 11.7345 13.0886C11.7491 13.059 11.7364 13.0151 11.7364 12.9776ZM10.7546 13.9114V13.9496C10.7872 13.9376 10.8345 13.9369 10.8521 13.9132C10.9301 13.8105 11.0186 13.7077 11.0692 13.5911C11.1401 13.4299 11.2121 13.2784 11.3554 13.1659C11.4161 13.1179 11.4649 13.0522 11.5114 12.9896C11.529 12.9649 11.5241 12.9232 11.529 12.8902C11.4206 12.9859 11.3299 13.0815 11.2538 13.1865C11.1863 13.2787 11.1079 13.3751 11.0831 13.4809C11.043 13.6545 10.9181 13.7651 10.8251 13.9001C10.8157 13.9129 10.7794 13.9091 10.7546 13.9114ZM10.4666 10.1936C10.4606 10.2011 10.4531 10.2086 10.4467 10.2169C10.5375 10.3027 10.629 10.389 10.7175 10.4764C10.9001 10.6571 11.0801 10.8397 11.2643 11.019C11.283 11.037 11.3179 11.0389 11.3456 11.0482C11.3362 11.0197 11.3336 10.9864 11.3179 10.962C11.2987 10.9339 11.2688 10.9147 11.2448 10.8915C11.038 10.704 10.8308 10.5171 10.623 10.3309C10.5724 10.2855 10.5195 10.2397 10.4666 10.1936ZM13.7542 13.6174C13.7614 13.6103 13.7678 13.6025 13.7734 13.5941C13.5056 13.3264 13.2352 13.0579 12.9649 12.7909C12.9442 12.7695 12.9049 12.7672 12.8756 12.7567C12.8865 12.7894 12.8899 12.8302 12.9127 12.8524C13.0117 12.9499 13.116 13.0429 13.2184 13.1362C13.3973 13.2986 13.5765 13.4572 13.7542 13.6174ZM10.4254 10.2855L10.4205 10.2881C10.4831 10.3575 10.5446 10.4269 10.608 10.4966C10.7873 10.6939 10.9654 10.8934 11.1472 11.088C11.1735 11.1157 11.2177 11.1262 11.2534 11.145L11.2635 11.1165C10.9845 10.839 10.704 10.5619 10.4254 10.2855ZM9.93712 10.9781C10.3117 11.1311 10.686 11.2849 11.0842 11.4487C11.04 11.3329 10.236 11.0119 9.93712 10.9781ZM12.9484 11.121C12.9626 11.136 12.9776 11.151 12.9934 11.166C13.2896 10.8825 13.5457 10.5611 13.8259 10.2626C13.8337 10.2697 13.8409 10.2769 13.8476 10.2847C13.5469 10.5634 13.2484 10.8412 12.9484 11.121ZM13.215 11.6059C13.2206 11.616 13.2251 11.6265 13.23 11.6366C13.3714 11.6272 13.5139 11.6272 13.6534 11.6059C13.7576 11.5909 13.8589 11.55 13.9612 11.5185C14.0576 11.4892 14.151 11.4551 14.2474 11.4277C14.304 11.412 14.3636 11.406 14.4229 11.397C14.418 11.3801 14.4142 11.3636 14.4101 11.3471C14.2931 11.3771 14.1694 11.3921 14.0602 11.4386C13.8952 11.5102 13.7325 11.5691 13.5484 11.5466C13.4845 11.5385 13.4199 11.5397 13.3564 11.55C13.3076 11.5579 13.2619 11.586 13.215 11.6059ZM12.6769 10.9095L12.7208 10.9309C12.7643 10.8727 12.8006 10.8064 12.8527 10.7557C13.0166 10.599 13.1325 10.4239 13.194 10.1981C13.2304 10.0691 13.3312 9.94685 13.4651 9.86885C13.4269 9.87448 13.3774 9.88048 13.3568 9.90898C13.2829 10.0061 13.2038 10.1044 13.1554 10.2157C13.0868 10.3725 13.0223 10.5262 12.8794 10.6335C12.8285 10.6729 12.7833 10.7192 12.7451 10.7711C12.7151 10.8116 12.6986 10.863 12.6769 10.9095ZM11.1825 9.73085C11.175 9.73474 11.167 9.73788 11.1589 9.74023C11.2886 10.1006 11.4173 10.4606 11.5508 10.8191C11.5594 10.8427 11.5984 10.8547 11.6216 10.8739C11.6302 10.866 11.6392 10.8581 11.6467 10.8506L11.1825 9.73085ZM11.0299 11.535C11.0314 11.5185 11.034 11.5027 11.0363 11.4859C10.6804 11.3396 10.3249 11.193 9.969 11.046C10.2829 11.2256 10.6072 11.3812 10.9327 11.5327C10.9605 11.5459 10.9973 11.535 11.0299 11.535ZM11.1784 14.1521C11.1885 14.1097 11.1975 14.055 11.2177 14.0044C11.3434 13.686 11.472 13.3695 11.5995 13.0511C11.6126 13.0162 11.6209 12.9802 11.6385 12.924C11.5132 13.0024 11.1461 14.0441 11.1784 14.1521ZM14.3145 11.0486L14.2988 11.0242L13.1827 11.502C13.1921 11.5226 13.2019 11.5421 13.2101 11.5635C13.5851 11.4086 13.9459 11.2181 14.3145 11.0486ZM14.2537 12.7582L14.2616 12.7372C13.9395 12.5835 13.6177 12.4297 13.2956 12.2786C13.2649 12.2644 13.2232 12.276 13.1865 12.276L13.1786 12.3142C13.5375 12.4627 13.8952 12.6116 14.2537 12.7582ZM12.5842 10.8596C12.6855 10.8266 13.044 9.89135 13.0541 9.68848L12.5842 10.8596ZM9.9555 12.7384C9.96038 12.7462 9.96563 12.7556 9.97125 12.7635C10.3249 12.6127 10.6792 12.4601 11.0329 12.3086C11.0242 12.2902 11.0152 12.2711 11.0085 12.2516C10.6474 12.3915 10.3091 12.5827 9.9555 12.7384ZM13.2645 12.0502C13.266 12.057 13.2667 12.063 13.2686 12.0694C13.4194 12.1245 13.5679 12.1879 13.722 12.2344C13.7944 12.2557 13.8784 12.2565 13.9541 12.246C14.1604 12.2194 14.3441 12.2726 14.5283 12.363C14.5065 12.3315 14.4832 12.2921 14.4517 12.2831C14.334 12.2516 14.2114 12.2059 14.0929 12.2115C13.9035 12.219 13.7265 12.2107 13.5581 12.1159C13.5012 12.0871 13.4408 12.0657 13.3785 12.0521C13.3421 12.0424 13.3027 12.0502 13.2645 12.0502ZM13.6976 13.3841C13.6955 13.3881 13.6929 13.3917 13.6898 13.395C13.4783 13.1629 13.2682 12.9292 13.0549 12.6979C13.0342 12.6754 12.9975 12.6694 12.9683 12.6551C12.966 12.6619 12.9634 12.666 12.9619 12.672C13.206 12.9097 13.4528 13.1471 13.6976 13.3841ZM14.2541 12.291C14.067 12.291 13.8949 12.3109 13.7291 12.2846C13.5619 12.2587 13.4149 12.1312 13.2158 12.162C13.2319 12.1931 13.2394 12.2261 13.2518 12.2269C13.578 12.2595 13.8892 12.45 14.2541 12.291ZM10.9852 11.6689C10.9927 11.6512 11.0002 11.6332 11.0085 11.6156C10.9691 11.5965 10.932 11.5714 10.89 11.5609C10.7959 11.5387 10.692 11.5429 10.605 11.505C10.4126 11.4195 10.23 11.4544 10.0369 11.5275C10.3796 11.4 10.6665 11.6389 10.9852 11.6689ZM10.9144 10.101C10.905 10.1074 10.8967 10.1141 10.8885 10.1209C10.95 10.1839 11.004 10.2547 11.0734 10.3072C11.1765 10.383 11.2463 10.4767 11.2954 10.5967C11.334 10.6931 11.3869 10.7846 11.4405 10.8739C11.4547 10.8971 11.4975 10.9024 11.5267 10.9147C11.5192 10.8817 11.5207 10.8416 11.5035 10.8169C11.3212 10.5664 11.1922 10.2731 10.9144 10.101ZM11.8556 13.0147C11.7221 13.0912 11.64 13.7182 11.7244 13.9744C11.7315 13.8172 11.7101 13.6541 11.7368 13.5011C11.7664 13.3421 11.8763 13.2019 11.8556 13.0147ZM13.0575 12.5512C13.0432 12.5677 13.0301 12.5842 13.0159 12.6019C13.1445 12.7005 13.266 12.8126 13.4051 12.8955C13.5499 12.9821 13.7115 13.041 13.8664 13.1119L13.887 13.0669C13.833 13.0432 13.7827 13.0069 13.7272 12.9964C13.5637 12.9671 13.4389 12.8816 13.326 12.7627C13.2495 12.681 13.1486 12.6202 13.0575 12.5512ZM12.5475 14.0336C12.534 13.9811 12.5333 13.9009 12.4946 13.8472C12.3728 13.6774 12.354 13.4895 12.3596 13.2889C12.3611 13.2041 12.3311 13.1197 12.3112 13.011C12.2741 13.0474 12.2539 13.0582 12.2554 13.0657C12.3262 13.4006 12.3004 13.7632 12.5475 14.0336ZM11.7191 14.256C11.73 14.2582 11.7413 14.2597 11.7514 14.2631C11.7727 14.145 11.8196 14.0254 11.8099 13.9102C11.7908 13.6965 11.8129 13.4996 11.9164 13.3106C11.9407 13.2656 11.955 13.212 11.9651 13.1617C11.9719 13.1276 11.9606 13.0897 11.958 13.0534C11.8815 13.2334 11.7859 13.4089 11.7765 13.59C11.7649 13.8086 11.7821 14.028 11.7094 14.2414C11.7083 14.244 11.7165 14.2515 11.7191 14.256ZM11.6771 9.7631C11.6899 9.81373 11.6899 9.9011 11.7319 9.96035C11.8511 10.1325 11.8702 10.3204 11.865 10.5202C11.8635 10.605 11.8935 10.689 11.9096 10.773C11.925 10.7779 11.9404 10.7809 11.9543 10.7846C11.961 10.7707 11.9719 10.7557 11.9692 10.743C11.9036 10.3995 11.9085 10.0357 11.6771 9.7631ZM10.3406 10.7486C10.4062 10.7722 10.4749 10.7902 10.5371 10.8214C10.6447 10.8765 10.7512 10.9342 10.8525 11.0017C10.9384 11.0602 11.0122 11.1375 11.0955 11.2009C11.1184 11.2174 11.1596 11.2125 11.1919 11.2174C11.1705 11.1866 11.1555 11.1487 11.127 11.1285C11.0726 11.0895 10.9991 11.0715 10.9556 11.025C10.7895 10.8487 10.5874 10.7501 10.3406 10.7486ZM13.2443 11.7079L13.2559 11.7634C13.5979 11.6966 13.9605 11.7135 14.2481 11.4671C14.1866 11.4844 14.1052 11.4907 14.0475 11.5301C13.8937 11.6392 13.7276 11.6644 13.5454 11.6614C13.4449 11.6595 13.3436 11.691 13.2443 11.7079ZM12.7695 10.965C12.7879 10.9785 12.8078 10.9909 12.8246 11.0044C12.966 10.7081 13.2945 10.5195 13.2795 10.1242C13.2536 10.185 13.2172 10.236 13.2086 10.2919C13.1812 10.4614 13.0905 10.587 12.9694 10.7032C12.891 10.7786 12.8351 10.8776 12.7695 10.965ZM9.98775 12.336C10.0339 12.3225 10.1077 12.3195 10.1591 12.2839C10.3189 12.1725 10.491 12.1406 10.6815 12.1462C10.7786 12.1496 10.878 12.114 10.9766 12.0956C10.971 12.0776 10.9684 12.0607 10.9635 12.0427C10.6252 12.1189 10.2596 12.0889 9.98775 12.336ZM11.4495 12.8422L11.3936 12.8059C11.2586 13.1021 10.9294 13.2892 10.9444 13.6834C10.9695 13.6267 11.0029 13.5817 11.0107 13.5334C11.0374 13.3489 11.1386 13.2124 11.2695 13.0867C11.3422 13.017 11.3902 12.9247 11.4495 12.8422ZM11.4007 10.9965C11.412 10.9882 11.4232 10.9785 11.4349 10.9691C11.2545 10.7827 11.2762 10.4659 11.0205 10.3372C11.0812 10.4404 11.151 10.5487 11.211 10.6616C11.2496 10.734 11.2699 10.8157 11.3081 10.8881C11.3287 10.9294 11.3685 10.9609 11.4007 10.9965ZM12.2363 10.7494C12.2554 10.7554 12.2756 10.7595 12.2963 10.7662C12.3004 10.5109 12.5235 10.3042 12.4534 10.065C12.4102 10.1906 12.357 10.341 12.3086 10.4921C12.2812 10.5765 12.2606 10.6631 12.2363 10.7494ZM10.5675 12.9671C10.6894 12.9056 10.818 12.8415 10.9462 12.7759C11.0104 12.7436 11.0753 12.7144 11.1353 12.6754C11.1581 12.6615 11.1694 12.6281 11.1851 12.6037L11.163 12.5824C10.9931 12.765 10.6912 12.7429 10.5671 12.9671M13.0219 11.1836C13.0327 11.199 13.044 11.2136 13.0549 11.2279C13.2232 11.0441 13.5225 11.0644 13.6459 10.8577C13.506 10.9226 13.3447 10.995 13.1876 11.0741C13.1284 11.103 13.0762 11.1465 13.0219 11.1836ZM13.185 13.4561C13.125 13.3534 13.0654 13.2562 13.0129 13.1542C12.9728 13.0777 12.9484 12.993 12.909 12.9172C12.8891 12.8801 12.849 12.8531 12.819 12.8216L12.7905 12.8452C12.9697 13.02 12.9484 13.3192 13.185 13.4561ZM10.5157 13.0612C10.368 13.1456 10.2521 13.2607 10.0841 13.275C10.1824 13.3357 10.3721 13.2435 10.5157 13.0612ZM13.3481 13.5649L13.3189 13.5817C13.3687 13.6684 13.4175 13.7546 13.4666 13.8424C13.4782 13.8345 13.4903 13.8281 13.5023 13.8199C13.4505 13.7355 13.3995 13.6492 13.3481 13.5649ZM10.7576 9.96035C10.746 9.96748 10.7344 9.97535 10.7227 9.98173C10.7734 10.0702 10.8244 10.1572 10.8742 10.2446C10.8844 10.2397 10.8949 10.2337 10.9042 10.2289L10.7576 9.96035Z" fill="#7B4022"/>
<path fill-rule="evenodd" clip-rule="evenodd" d="M11.8626 12.8737C11.9027 12.9164 11.9301 12.9446 11.9567 12.9727C11.4812 12.9719 11.0271 12.4694 11.017 11.9347C11.0068 11.3482 11.4591 10.8483 12.0261 10.8194C12.6381 10.7902 13.1466 11.2271 13.1923 11.8218C13.2343 12.3723 12.8196 12.9157 12.3073 12.9652C12.3238 12.9352 12.3362 12.9093 12.3531 12.8771C12.1307 12.9577 12.1307 12.9577 11.8626 12.8737ZM12.3201 12.0224C12.316 12.0333 12.3118 12.0457 12.3066 12.0566C12.316 12.0614 12.3276 12.0652 12.3336 12.0723C12.3572 12.1001 12.3793 12.1274 12.4018 12.1563C12.3685 12.1627 12.3336 12.1713 12.2991 12.1762C12.28 12.1792 12.2518 12.1683 12.241 12.1777C12.1405 12.2699 12.0505 12.2399 11.959 12.1848C11.914 12.1784 11.869 12.1717 11.824 12.1642L11.9095 12.0254C11.8652 12.0378 11.8127 12.0389 11.7861 12.0648C11.7625 12.0869 11.7497 12.1484 11.7647 12.1736C11.7853 12.2092 11.8326 12.2351 11.8738 12.2512C11.9046 12.2628 11.9417 12.2534 11.9762 12.2534L11.9833 12.2849C11.941 12.2977 11.8975 12.3224 11.8555 12.3206C11.7921 12.3183 11.7313 12.3206 11.7313 12.3956C11.7321 12.4589 11.7782 12.5013 11.8521 12.5013C12.0268 12.4998 12.2016 12.5006 12.3756 12.4998C12.3898 12.4998 12.4112 12.5021 12.4191 12.4934C12.4465 12.4593 12.4798 12.4237 12.4907 12.3843C12.4933 12.3701 12.4386 12.3303 12.4052 12.3202C12.346 12.3037 12.2837 12.2996 12.223 12.2913C12.223 12.2812 12.223 12.2707 12.2237 12.2594C12.2605 12.2564 12.2987 12.2606 12.3336 12.2504C12.376 12.2369 12.4315 12.2212 12.4536 12.1886C12.4708 12.1604 12.4637 12.0948 12.4408 12.0671C12.4161 12.0382 12.3621 12.0359 12.3201 12.0224ZM11.4561 11.4753C11.806 11.3778 11.9485 11.4003 11.9616 11.5552C11.7808 11.4802 11.608 11.4536 11.4508 11.6189C11.6102 11.7821 11.7868 11.7524 11.9691 11.6932C11.8457 11.8053 11.6987 11.8004 11.5457 11.7922C11.6128 11.8237 11.6837 11.8518 11.7535 11.8496C11.8243 11.8473 11.8941 11.8124 11.9747 11.7896V12.0224C12.0433 11.9081 12.0606 11.5552 12.007 11.4626C11.9961 11.4427 11.981 11.4254 11.9627 11.4119C11.8438 11.3163 11.5525 11.3126 11.4561 11.4753ZM12.7693 11.6186C12.6115 11.4513 12.436 11.4828 12.2421 11.5586C12.2743 11.4116 12.3857 11.4172 12.4727 11.4164C12.565 11.4164 12.6572 11.4472 12.7753 11.4697C12.6493 11.3471 12.5248 11.3249 12.3842 11.3572C12.2395 11.3906 12.1885 11.4442 12.1851 11.5886C12.1821 11.7048 12.1918 11.8226 12.1986 11.9388C12.2005 11.9632 12.217 11.9879 12.2271 12.0119L12.2522 12.0071V11.7806C12.4015 11.8496 12.538 11.8961 12.7015 11.7682C12.5215 11.8031 12.3752 11.8031 12.2522 11.6932C12.4345 11.7566 12.6081 11.7798 12.7693 11.6186ZM11.932 12.6982H12.2953C12.2447 12.6742 12.2072 12.6551 12.1701 12.6367C12.1701 12.6273 12.169 12.6176 12.1682 12.6093C12.2323 12.6093 12.2953 12.6037 12.358 12.6101C12.4386 12.6202 12.466 12.6082 12.4892 12.5437H11.7317C11.7718 12.5744 11.8217 12.5988 11.8731 12.6059C11.9391 12.6138 12.0058 12.6074 12.0722 12.6074C12.0722 12.6168 12.0722 12.6273 12.0707 12.6367C12.0283 12.6551 11.986 12.6749 11.9327 12.6982M11.0548 12.4649L9.94297 12.8591C9.93959 12.8512 9.93734 12.8441 9.93359 12.8362C10.3063 12.6772 10.6776 12.5178 11.0781 12.3472C11.0653 12.4038 11.0582 12.4353 11.053 12.4679L11.0548 12.4649ZM13.1552 12.3637C13.5366 12.5223 13.9195 12.6806 14.302 12.8392C14.0957 12.8298 13.1938 12.4833 13.1383 12.4042L13.1552 12.3637ZM13.1815 11.3362L13.0832 11.3197L13.0708 11.2754C13.1781 11.2139 13.282 11.1397 13.396 11.0939C13.531 11.0392 13.6348 10.9608 13.7188 10.8434C13.7642 10.7819 13.8321 10.7354 13.8962 10.6904C13.9716 10.6357 14.0563 10.5899 14.1497 10.5547C14.1088 10.5866 14.0713 10.6237 14.0267 10.6473C13.9041 10.7137 13.8156 10.8074 13.7346 10.9207C13.6791 10.9987 13.5812 11.0478 13.5013 11.1071C13.3948 11.1858 13.2857 11.2634 13.1785 11.3407L13.1815 11.3362Z" fill="#FDD12E"/>
<path fill-rule="evenodd" clip-rule="evenodd" d="M13.1779 11.3398C13.5447 11.2112 13.9107 11.0829 14.2782 10.9554C14.28 10.9626 14.2838 10.9689 14.2857 10.9761C13.9272 11.1283 13.5683 11.2817 13.209 11.4336C13.1925 11.4399 13.1689 11.4324 13.1483 11.4317L13.1817 11.3361L13.1779 11.3398ZM12.1433 14.2911V13.0566C12.1519 13.0528 12.1602 13.0494 12.1692 13.0449C12.186 13.0716 12.2175 13.0989 12.2157 13.1241C12.201 13.5133 12.1804 13.9033 12.1602 14.2926L12.1433 14.2911ZM12.141 10.7713V9.5267L12.1568 9.52519C12.1692 9.73444 12.1834 9.9437 12.1939 10.1522C12.2224 10.7151 12.2224 10.7151 12.141 10.7713ZM12.9694 9.76107C12.8239 10.1203 12.6795 10.4814 12.5295 10.8508C12.4395 10.7867 12.4804 10.7252 12.5059 10.6738C12.6158 10.4334 12.7313 10.1972 12.8445 9.95907C12.8779 9.88857 12.9128 9.8192 12.9465 9.74982C12.9544 9.7532 12.9615 9.75657 12.9694 9.76107ZM12.0754 13.0284V14.2911C12.0083 14.0241 11.9918 13.1121 12.0754 13.0284ZM13.2417 11.8419C13.2773 11.8273 13.3133 11.7962 13.3482 11.7981C13.7269 11.8153 14.1057 11.8374 14.4807 11.8779H13.2548C13.2496 11.8661 13.2447 11.8541 13.2402 11.8419M14.4934 11.9496C14.079 11.9724 13.6658 12.0174 13.2518 12.0088L13.251 11.9496H14.4934ZM9.72904 11.9226C10.1097 11.9226 10.4892 11.9218 10.8694 11.9252C10.8987 11.9259 10.9294 11.9518 10.9594 11.9661C10.926 11.9833 10.8919 12.0159 10.8589 12.0152C10.6635 12.0103 10.4685 11.9976 10.2735 11.9867C10.0909 11.9773 9.90904 11.9653 9.72754 11.9552C9.72904 11.9443 9.72904 11.9338 9.72904 11.9226ZM12.0754 9.52407V10.7586C12.0642 10.7616 12.0529 10.7657 12.042 10.7694C12.0278 10.7338 11.9997 10.6978 12.0004 10.6644C12.0188 10.2846 12.0398 9.90545 12.0604 9.5282L12.0754 9.52482M9.76916 11.8626C9.96454 11.8138 10.8912 11.7909 10.9834 11.8626H9.76916ZM13.7539 10.2186C13.5128 10.4642 13.272 10.7109 13.0317 10.9566C13.0002 10.9881 12.9709 11.0229 12.9364 11.0514C12.9229 11.0623 12.8989 11.0616 12.8794 11.0661C12.8779 11.0466 12.8723 11.0252 12.8764 11.0064C12.8826 10.9885 12.8938 10.9726 12.9087 10.9607C13.185 10.7079 13.4618 10.4548 13.7378 10.2032C13.7434 10.2084 13.7487 10.2138 13.7539 10.2193M12.4804 13.1222V12.9808C12.4954 12.9778 12.5104 12.9759 12.5254 12.9744C12.681 13.3487 12.8359 13.7233 12.9923 14.0983C12.9837 14.1013 12.9758 14.1062 12.9679 14.1092C12.8937 13.9562 12.8217 13.8021 12.7467 13.6494C12.6582 13.4709 12.5678 13.2951 12.4782 13.1181L12.4804 13.1222ZM10.4498 13.6506C10.4674 13.6191 10.4783 13.5819 10.5023 13.5576C10.7453 13.3056 10.9898 13.0543 11.2358 12.8076C11.2609 12.7824 11.3067 12.7776 11.3434 12.7618C11.3265 12.7997 11.3198 12.8473 11.2928 12.8721C11.0273 13.1162 10.758 13.3581 10.4907 13.6003C10.4742 13.6146 10.4633 13.6333 10.4498 13.6506V13.6517V13.6506ZM12.3432 10.7799C12.3754 10.6622 12.3979 10.5422 12.4437 10.4308C12.4973 10.3018 12.5153 10.1762 12.4995 10.0363C12.4894 9.9392 12.5119 9.83682 12.5262 9.73782C12.5363 9.66282 12.5562 9.58895 12.5753 9.49707C12.5862 9.51995 12.6045 9.53944 12.6012 9.55369C12.543 9.75432 12.5224 9.95645 12.5719 10.1642C12.5832 10.2099 12.5532 10.2658 12.5412 10.3164C12.5104 10.4469 12.4812 10.5778 12.4489 10.7076C12.4395 10.7406 12.4182 10.7706 12.4017 10.8021L12.3432 10.7799ZM11.7379 10.6941V10.8279L11.6929 10.8373C11.544 10.4788 11.3952 10.1196 11.2459 9.76182C11.254 9.75718 11.2626 9.75329 11.2714 9.7502C11.3419 9.89532 11.4102 10.0423 11.4825 10.1874C11.5669 10.3581 11.6539 10.5279 11.7398 10.6967L11.7379 10.6941Z" fill="#FDD12E"/>
<path fill-rule="evenodd" clip-rule="evenodd" d="M10.4497 13.6498C10.4257 13.6465 10.4009 13.6427 10.3758 13.6405C10.3957 13.5107 11.155 12.6823 11.2784 12.673C11.2342 12.7255 11.2019 12.7678 11.1644 12.8057C10.9323 13.0423 10.6994 13.2786 10.468 13.5148C10.4298 13.5542 10.3732 13.594 10.4497 13.6506V13.6498ZM11.734 12.9801C11.734 13.0176 11.7468 13.0615 11.7325 13.0915C11.5893 13.402 11.4419 13.7098 11.2957 14.0181C11.2863 14.0147 11.2777 14.0102 11.2698 14.0072C11.407 13.6637 11.5454 13.3191 11.6838 12.9756C11.6999 12.9763 11.7175 12.9778 11.734 12.9801ZM10.753 13.9123C10.7778 13.9101 10.8142 13.9142 10.8235 13.9015C10.9162 13.7665 11.041 13.6558 11.0815 13.4822C11.1063 13.3765 11.1847 13.2801 11.2522 13.1878C11.3283 13.0828 11.419 12.9872 11.5274 12.8916C11.5225 12.9246 11.5274 12.9658 11.5098 12.991C11.4633 13.0536 11.4145 13.1192 11.3538 13.1672C11.2105 13.2797 11.1389 13.4312 11.0677 13.5925C11.017 13.7095 10.9285 13.8118 10.8505 13.9146C10.8329 13.9382 10.7857 13.9386 10.753 13.951V13.9123ZM10.465 10.1961C10.5179 10.2418 10.5704 10.2876 10.621 10.3333C10.8292 10.5197 11.0358 10.7061 11.2428 10.894C11.2668 10.9172 11.2972 10.936 11.3159 10.9645C11.3317 10.9888 11.3343 11.0222 11.3437 11.0507C11.3159 11.0413 11.281 11.0395 11.2623 11.0215C11.0782 10.8418 10.8982 10.6596 10.7155 10.4788C10.6264 10.3912 10.5361 10.3047 10.4448 10.2193C10.4515 10.2111 10.4594 10.2036 10.465 10.1961ZM13.7527 13.6198C13.5749 13.4593 13.3957 13.3007 13.2164 13.1391C13.114 13.0457 13.0094 12.9527 12.9108 12.8552C12.8879 12.8331 12.8849 12.7922 12.8737 12.7596C12.9029 12.7697 12.9427 12.7723 12.9629 12.7937C13.2337 13.0607 13.5037 13.3292 13.7714 13.597C13.766 13.6052 13.7597 13.6129 13.7527 13.6198ZM10.4238 10.288L11.2619 11.119C11.2585 11.1283 11.2544 11.1381 11.2518 11.1475C11.2158 11.1283 11.1719 11.1182 11.1457 11.0905C10.9642 10.8955 10.7857 10.6963 10.6064 10.4991C10.543 10.4293 10.4815 10.36 10.4189 10.2906C10.4205 10.2896 10.4221 10.2888 10.4238 10.288ZM9.93555 10.9798C10.2344 11.0136 11.038 11.3342 11.0827 11.4505C10.6844 11.287 10.3102 11.1328 9.93555 10.9798ZM12.9457 11.1235L13.8445 10.2872C13.8379 10.2793 13.8306 10.2719 13.8228 10.2651C13.5427 10.5636 13.2865 10.885 12.9903 11.1685C12.9751 11.1537 12.9603 11.1387 12.9457 11.1235ZM13.2115 11.6083C13.2584 11.5885 13.3038 11.5603 13.3529 11.5525C13.4165 11.5425 13.4811 11.5414 13.5449 11.5491C13.729 11.5716 13.8918 11.5127 14.0568 11.4411C14.1659 11.3946 14.2897 11.3796 14.4067 11.3496C14.4108 11.3661 14.4145 11.3826 14.4194 11.3995C14.3602 11.4085 14.3009 11.4145 14.2439 11.4302C14.1475 11.4576 14.0542 11.4917 13.9578 11.521C13.8554 11.5525 13.7542 11.5933 13.6499 11.6083C13.5104 11.6297 13.3679 11.6297 13.2265 11.6391C13.222 11.6286 13.217 11.6184 13.2115 11.6083ZM12.6742 10.9123C12.6963 10.8658 12.7128 10.8145 12.742 10.7743C12.7807 10.7226 12.8268 10.6746 12.8763 10.6367C13.0192 10.5295 13.084 10.3757 13.1523 10.219C13.2007 10.1076 13.2798 10.009 13.3537 9.91222C13.3743 9.88372 13.4242 9.87734 13.462 9.87209C13.3285 9.95009 13.2273 10.0723 13.1909 10.2013C13.1294 10.4275 13.0132 10.6022 12.8497 10.759C12.7975 10.8096 12.7615 10.876 12.7177 10.9341C12.7034 10.9263 12.6889 10.9191 12.6742 10.9123ZM11.1798 9.73334L11.644 10.8531L11.6189 10.8763C11.5953 10.8572 11.5567 10.8456 11.548 10.8216C11.4149 10.4631 11.2859 10.1031 11.1562 9.74272C11.1643 9.74031 11.1722 9.73717 11.1798 9.73334ZM11.0272 11.5375C10.9945 11.5375 10.9574 11.5483 10.93 11.5352C10.6045 11.3837 10.2802 11.2281 9.9663 11.0485C10.3218 11.1955 10.6773 11.3421 11.0335 11.4883C11.0313 11.5052 11.0287 11.521 11.0272 11.5375ZM11.1757 14.1546C11.1434 14.0466 11.5109 13.0048 11.6358 12.9268C11.6182 12.9827 11.6103 13.0191 11.5968 13.054C11.4693 13.3723 11.3407 13.6888 11.215 14.0072C11.1948 14.0575 11.1858 14.1122 11.1757 14.1546ZM14.3103 11.0511C13.9417 11.2206 13.5817 11.4111 13.2063 11.566C13.198 11.5446 13.1883 11.5251 13.1789 11.5045C13.5517 11.3447 13.9225 11.1857 14.2949 11.0267L14.3103 11.0511ZM11.7415 10.6967C11.7648 10.4338 11.7685 10.177 11.6328 9.93172C11.5822 9.83759 11.5822 9.71609 11.5522 9.57959C11.5957 9.60471 11.6069 9.60696 11.6069 9.61109C11.6249 9.81396 11.6692 10.0086 11.782 10.1852C11.8113 10.231 11.8098 10.3007 11.8113 10.3596C11.8147 10.5013 11.812 10.6435 11.812 10.7848C11.7885 10.7555 11.765 10.7261 11.7415 10.6967ZM12.4803 13.1185C12.457 13.3772 12.4462 13.6341 12.586 13.8722C12.6468 13.9746 12.6625 14.0942 12.6442 14.1943C12.5718 13.9915 12.4762 13.7826 12.4248 13.5625C12.3854 13.3911 12.4004 13.2077 12.3899 13.0007L12.4814 13.1215C12.4825 13.1226 12.4803 13.1185 12.4803 13.1185ZM12.67 12.9628L13.0387 14.0117C13.03 14.014 13.0229 14.0173 13.015 14.0196C12.868 13.6645 12.7214 13.3086 12.5737 12.9542C12.5819 12.9478 12.5902 12.9415 12.5984 12.9358C12.6232 12.946 12.6475 12.9557 12.6719 12.967L12.67 12.9628ZM14.2503 12.7611C13.8918 12.6141 13.534 12.4656 13.1755 12.3171C13.1782 12.3051 13.1812 12.292 13.1834 12.2788C13.2202 12.2788 13.2618 12.2672 13.2925 12.2815C13.6147 12.4322 13.9364 12.5863 14.2585 12.7401L14.2503 12.7611ZM12.5815 10.8621L13.0514 9.69097C13.0409 9.89384 12.6824 10.8291 12.5815 10.8621Z" fill="#FDD12E"/>
<path fill-rule="evenodd" clip-rule="evenodd" d="M12.6722 12.9669C12.6824 12.9377 12.6914 12.9077 12.7064 12.8608C12.8594 12.9883 12.8834 13.1672 12.9741 13.3033C13.0622 13.4368 13.1954 13.5429 13.3011 13.6667C13.1519 13.5587 12.9816 13.4822 12.9014 13.2917C12.8507 13.1709 12.7491 13.0727 12.6704 12.9647L12.6722 12.9677M9.95312 12.7412C10.3067 12.5856 10.645 12.3943 11.0061 12.2544C11.0133 12.2743 11.0219 12.2934 11.0305 12.3114C10.6769 12.4629 10.3225 12.6156 9.96887 12.7663C9.96325 12.7581 9.958 12.7487 9.95312 12.7412ZM13.264 12.0523C13.3022 12.0523 13.3416 12.0444 13.378 12.0542C13.4395 12.0692 13.5017 12.0879 13.5576 12.1179C13.726 12.2128 13.903 12.2207 14.0924 12.2136C14.2109 12.2079 14.3335 12.2537 14.4512 12.2852C14.4827 12.2938 14.506 12.3336 14.5278 12.3651C14.3436 12.2751 14.1599 12.2214 13.9536 12.2481C13.8763 12.2598 13.7973 12.2559 13.7215 12.2364C13.5674 12.1899 13.4189 12.1266 13.2681 12.0714C13.2663 12.0651 13.2655 12.0587 13.264 12.0523ZM13.6953 13.3869C13.4508 13.1499 13.2036 12.9122 12.9591 12.6748C12.9606 12.6688 12.9633 12.6647 12.9655 12.6579C12.9948 12.6722 13.0319 12.6786 13.0521 12.7007C13.2655 12.9321 13.4755 13.1657 13.687 13.3978C13.6904 13.3947 13.6931 13.391 13.6953 13.3869Z" fill="#FDD12E"/>
<path fill-rule="evenodd" clip-rule="evenodd" d="M14.2508 12.294C13.8859 12.453 13.5746 12.2625 13.248 12.2299C13.236 12.2291 13.2281 12.1961 13.212 12.165C13.4111 12.1343 13.5581 12.2618 13.7254 12.2876C13.8915 12.3139 14.0636 12.294 14.2508 12.294ZM10.9845 11.6738C10.6654 11.6438 10.3789 11.4049 10.0361 11.5324C10.2274 11.4596 10.4111 11.4248 10.6043 11.5099C10.6909 11.5481 10.7951 11.544 10.8893 11.5658C10.9313 11.5759 10.9684 11.6014 11.0078 11.6205C10.9995 11.6381 10.992 11.6561 10.9845 11.6738ZM11.0531 12.4688C11.0809 12.4796 11.109 12.4916 11.148 12.5074C11.0254 12.6465 10.8611 12.6821 10.728 12.7658C10.5998 12.8456 10.5011 12.9701 10.3834 13.0699C10.464 12.9199 10.5514 12.7838 10.7213 12.705C10.8428 12.648 10.944 12.5468 11.0554 12.4654L11.0531 12.4688ZM10.9133 10.104C11.1911 10.2761 11.3201 10.569 11.5024 10.8203C11.5196 10.8446 11.5181 10.8851 11.5256 10.9181C11.4964 10.9058 11.4536 10.9001 11.4394 10.8773C11.3837 10.7889 11.3352 10.6962 11.2943 10.6001C11.2496 10.4843 11.1725 10.3838 11.0723 10.3106C11.0025 10.2581 10.9489 10.1873 10.8874 10.1243C10.8955 10.1169 10.9042 10.1101 10.9133 10.104ZM11.8538 13.0178C11.8744 13.2049 11.7645 13.3451 11.7353 13.5041C11.7086 13.6571 11.7296 13.8203 11.7229 13.9774C11.6381 13.7213 11.7203 13.0943 11.8538 13.0178ZM13.0556 12.5543C13.1464 12.6236 13.2476 12.6844 13.3241 12.7658C13.4374 12.8846 13.5623 12.9701 13.7254 12.9994C13.7805 13.0095 13.8311 13.0459 13.8851 13.0699L13.8645 13.1149C13.7096 13.044 13.5476 12.9851 13.4033 12.8985C13.2641 12.8153 13.1426 12.7031 13.014 12.6049C13.0283 12.5869 13.0414 12.5704 13.0556 12.5543ZM12.5456 14.0366C12.2985 13.7663 12.3244 13.4036 12.2535 13.0684C12.252 13.0609 12.2726 13.05 12.3094 13.0136C12.3293 13.1224 12.3593 13.2071 12.3578 13.2915C12.3521 13.4921 12.3709 13.68 12.4928 13.8499C12.5314 13.9035 12.5321 13.9841 12.5456 14.0366Z" fill="#FDD12E"/>
<path fill-rule="evenodd" clip-rule="evenodd" d="M11.7152 14.2576C11.7126 14.2528 11.7043 14.2456 11.7058 14.2426C11.7782 14.0293 11.761 13.8099 11.773 13.5913C11.7823 13.4105 11.878 13.235 11.9545 13.0546C11.9571 13.091 11.968 13.1289 11.9616 13.163C11.9529 13.2148 11.9364 13.265 11.9128 13.3119C11.8093 13.5009 11.7872 13.6974 11.8063 13.9115C11.8157 14.027 11.7688 14.1463 11.7478 14.2644C11.7373 14.2614 11.7261 14.2599 11.7152 14.2576ZM11.674 9.76514C11.9053 10.0378 11.9005 10.4015 11.9661 10.745C11.9687 10.7578 11.9578 10.7728 11.9511 10.7866C11.9372 10.7829 11.9218 10.7795 11.9065 10.775C11.8903 10.691 11.8603 10.607 11.8618 10.5223C11.8671 10.3224 11.848 10.1345 11.7287 9.96239C11.6867 9.90314 11.6867 9.81576 11.674 9.76514ZM10.3382 10.7518C10.5846 10.7533 10.7867 10.8523 10.9536 11.0281C10.9971 11.0746 11.071 11.093 11.125 11.1316C11.1535 11.1523 11.1685 11.1898 11.1898 11.2205C11.1576 11.2156 11.1163 11.2205 11.0935 11.204C11.0098 11.1406 10.9363 11.0634 10.8505 11.0049C10.749 10.9386 10.6437 10.8784 10.5351 10.8245C10.4728 10.7934 10.4038 10.7754 10.3382 10.7518ZM10.2115 12.3418C10.2955 12.2964 10.3727 12.2251 10.4612 12.2105C10.6333 12.182 10.8111 12.185 11.0068 12.1738C10.9836 12.2015 10.9705 12.2315 10.951 12.2371C10.8938 12.2556 10.8341 12.2651 10.774 12.2653C10.5808 12.2551 10.3915 12.2653 10.21 12.3388L10.2115 12.3418ZM13.2415 11.7114C13.3412 11.6941 13.4421 11.6626 13.5426 11.6649C13.7248 11.6683 13.891 11.6428 14.0447 11.5336C14.1025 11.4943 14.1838 11.4879 14.2453 11.4706C13.9577 11.717 13.5955 11.7001 13.2531 11.7669C13.2486 11.7489 13.2452 11.7298 13.2415 11.7114ZM12.769 10.9689C12.8346 10.8815 12.8905 10.7825 12.9688 10.7075C13.0896 10.5913 13.1803 10.4656 13.2081 10.2961C13.2167 10.2403 13.2531 10.1893 13.279 10.1285C13.294 10.5238 12.9655 10.7124 12.8241 11.0086C12.8068 10.9948 12.7873 10.9824 12.769 10.9689Z" fill="#FDD12E"/>
<path fill-rule="evenodd" clip-rule="evenodd" d="M9.98535 12.3388C10.2572 12.0916 10.6229 12.1216 10.9611 12.0459C10.966 12.0639 10.969 12.0808 10.9742 12.0988C10.8756 12.1171 10.7762 12.1528 10.6791 12.1494C10.4886 12.1438 10.3165 12.1756 10.1567 12.287C10.1054 12.3223 10.0315 12.3253 9.98535 12.3388ZM11.4471 12.8435C11.3879 12.926 11.3399 13.0183 11.2671 13.0876C11.1359 13.2133 11.035 13.3498 11.0084 13.5343C11.0005 13.5826 10.9675 13.6276 10.942 13.6843C10.927 13.2901 11.2562 13.103 11.3912 12.8068C11.4104 12.8188 11.4295 12.8319 11.4471 12.8435ZM10.4702 10.8541C10.6334 10.889 10.7642 10.9715 10.8749 11.0979C10.9454 11.1778 11.0399 11.2378 11.1164 11.3274C11.0792 11.3184 11.0361 11.3158 11.0069 11.2944C10.9495 11.2528 10.9026 11.1973 10.8471 11.153C10.7399 11.0683 10.6285 10.9888 10.5201 10.9059C10.5021 10.8909 10.4871 10.871 10.4721 10.8526L10.4702 10.8541ZM13.7796 12.9515C13.6249 12.9386 13.4815 12.8654 13.3802 12.7479C13.2955 12.6556 13.1912 12.5821 13.1069 12.4741C13.1496 12.4933 13.1969 12.5049 13.2332 12.5315C13.2839 12.5698 13.336 12.6114 13.3716 12.6635C13.4729 12.8105 13.633 12.8705 13.7766 12.9541L13.7796 12.9515ZM11.3984 10.9993C11.3661 10.9636 11.3267 10.9321 11.3054 10.8913C11.2671 10.8189 11.2469 10.7371 11.2082 10.6648C11.1482 10.5519 11.0785 10.4435 11.0177 10.3404C11.2739 10.469 11.2517 10.7859 11.4321 10.9723C11.4205 10.9813 11.4096 10.991 11.3984 10.9993ZM12.2339 10.7521C12.2582 10.6663 12.2789 10.5793 12.3062 10.4945C12.3546 10.3438 12.4079 10.193 12.451 10.0674C12.5215 10.3066 12.298 10.5133 12.2939 10.7686C12.2736 10.7623 12.253 10.7578 12.2339 10.7521ZM10.564 12.9699C10.6881 12.7456 10.99 12.7678 11.1599 12.5855L11.182 12.6069C11.1662 12.6313 11.155 12.6646 11.1321 12.6785C11.0721 12.7175 11.0072 12.7468 10.9431 12.779C10.8145 12.8443 10.6855 12.9084 10.564 12.9699ZM10.204 11.6041C10.3026 11.5963 10.4084 11.5651 10.5006 11.5861C10.6555 11.6218 10.8032 11.6911 10.9559 11.7654C10.9052 11.7605 10.8516 11.7665 10.8051 11.7496C10.7095 11.7181 10.6202 11.6638 10.5239 11.6398C10.4196 11.6139 10.3101 11.6139 10.204 11.6041ZM13.0199 11.1864C13.0746 11.1493 13.1264 11.1058 13.1856 11.0769C13.3427 10.9978 13.504 10.9254 13.6439 10.8605C13.5205 11.0675 13.2212 11.0469 13.0529 11.2306C13.0415 11.2162 13.0305 11.2014 13.0199 11.1864ZM13.1815 13.4581C12.9449 13.3216 12.9662 13.022 12.7866 12.8476L12.8151 12.824C12.8451 12.8555 12.8856 12.8825 12.9051 12.9196C12.9445 12.9954 12.9689 13.0801 13.009 13.1566C13.0619 13.2579 13.1215 13.355 13.1815 13.4581Z" fill="#FDD12E"/>
<path fill-rule="evenodd" clip-rule="evenodd" d="M10.4719 10.853C10.3061 10.8763 10.0485 10.67 10.0819 10.5553C10.1756 10.6937 10.3039 10.7964 10.4693 10.8549L10.4719 10.853ZM10.515 13.0633C10.3714 13.2455 10.1816 13.3378 10.0834 13.2785C10.2514 13.2628 10.3676 13.1477 10.515 13.0633ZM13.776 12.9542C13.9418 12.9733 14.0546 13.0689 14.1394 13.2035C14.1495 13.2178 14.1428 13.2437 14.127 13.2628C14.1143 13.2335 14.1086 13.193 14.0869 13.1769C13.9871 13.0982 13.8829 13.0262 13.7805 12.9515L13.776 12.9542ZM10.2113 12.3388C10.0913 12.4385 9.95064 12.4479 9.80627 12.4412L9.80064 12.413C9.93789 12.3894 10.0751 12.3647 10.2128 12.3414L10.2113 12.3388ZM10.2038 11.6042C10.0455 11.6177 9.89102 11.6117 9.75977 11.4984C9.90752 11.534 10.056 11.5697 10.2038 11.6042ZM13.3459 13.5673L13.4996 13.8227C13.488 13.8305 13.476 13.8369 13.464 13.8452C13.4153 13.758 13.366 13.6711 13.3163 13.5845C13.3268 13.5785 13.3361 13.5722 13.3459 13.5673ZM10.7554 9.9624L10.9024 10.2309C10.893 10.2358 10.8825 10.2418 10.8724 10.2467C10.8225 10.1593 10.7711 10.0723 10.7209 9.98378C10.7321 9.9774 10.7434 9.96953 10.7554 9.9624Z" fill="#FDD12E"/>
<path fill-rule="evenodd" clip-rule="evenodd" d="M12.3198 12.0224C12.3618 12.0359 12.4162 12.0386 12.4406 12.0667C12.4638 12.0944 12.4706 12.1601 12.4533 12.1882C12.4308 12.2208 12.3757 12.2366 12.3333 12.2501C12.2984 12.2602 12.2602 12.2564 12.2234 12.2591C12.2227 12.2703 12.2227 12.2808 12.2227 12.2909C12.2834 12.2992 12.3457 12.3033 12.4049 12.3198C12.4383 12.3299 12.4927 12.3697 12.4904 12.3839C12.4796 12.4233 12.4462 12.4589 12.4188 12.4931C12.4109 12.5013 12.3896 12.4994 12.3753 12.4994C12.2009 12.5002 12.0262 12.4994 11.8518 12.5009C11.7779 12.5009 11.7318 12.4586 11.7311 12.3952C11.7311 12.3202 11.7918 12.3179 11.8552 12.3202C11.8968 12.3221 11.9407 12.2973 11.9831 12.2846L11.9759 12.2531C11.9411 12.2531 11.9043 12.2624 11.8736 12.2508C11.8323 12.2347 11.7851 12.2088 11.7644 12.1732C11.7494 12.1481 11.7618 12.0866 11.7858 12.0644C11.8124 12.0386 11.8649 12.0374 11.9092 12.0251L11.8237 12.1638C11.8687 12.1713 11.9137 12.1781 11.9587 12.1844C12.0502 12.2396 12.1402 12.2699 12.2407 12.1773C12.2516 12.1679 12.2797 12.1788 12.2988 12.1758C12.3337 12.1709 12.3686 12.1623 12.4016 12.1559C12.3794 12.1275 12.3566 12.0995 12.3333 12.0719C12.3269 12.0648 12.3157 12.0611 12.3063 12.0562C12.3112 12.0453 12.3157 12.0333 12.3198 12.0224ZM11.9557 12.3637V12.3971H12.2662V12.3637H11.9557ZM11.4558 11.4761C11.5522 11.3133 11.8436 11.3171 11.9621 11.4127C11.9803 11.4261 11.9955 11.4434 12.0063 11.4633C12.0603 11.5559 12.0427 11.9088 11.9741 12.0232V11.7903C11.8934 11.8136 11.8241 11.8481 11.7528 11.8503C11.6831 11.8526 11.6122 11.8244 11.5451 11.7929C11.6981 11.8012 11.8451 11.8061 11.9684 11.6939C11.7862 11.7532 11.6096 11.7824 11.4502 11.6197C11.6073 11.4543 11.7802 11.4809 11.9609 11.5559C11.9478 11.4007 11.8053 11.3786 11.4558 11.4761ZM11.8203 11.6171C11.7779 11.5863 11.7487 11.5496 11.7303 11.5556C11.7029 11.5634 11.6823 11.5987 11.6594 11.6227C11.6831 11.6426 11.7063 11.6741 11.7303 11.6759C11.7536 11.6774 11.7787 11.6467 11.8203 11.6171ZM12.7687 11.6193C12.6074 11.7806 12.4338 11.7569 12.2516 11.6936C12.3746 11.8034 12.5208 11.8034 12.7008 11.7686C12.5369 11.8964 12.4008 11.8499 12.2516 11.7809V12.0074L12.2264 12.0123C12.2163 11.9883 12.1998 11.9636 12.1979 11.9392C12.1908 11.8229 12.1814 11.7052 12.1844 11.5889C12.1878 11.4446 12.2392 11.3909 12.3836 11.3576C12.5242 11.3253 12.6487 11.3474 12.7747 11.4701C12.6569 11.4476 12.5643 11.4168 12.4721 11.4168C12.3851 11.4176 12.2737 11.4119 12.2414 11.5589C12.4353 11.4836 12.6108 11.4521 12.7687 11.6193ZM12.4604 11.7157L12.5103 11.6891C12.5253 11.6639 12.5568 11.6354 12.5531 11.6141C12.5471 11.5904 12.5122 11.5724 12.4897 11.5518C12.4676 11.5762 12.4323 11.5983 12.4274 11.6261C12.4229 11.6534 12.4481 11.6861 12.4604 11.7157ZM11.9317 12.6989L12.0693 12.6374C12.0708 12.6281 12.0708 12.6176 12.0708 12.6082C12.0044 12.6082 11.9377 12.6149 11.8717 12.6067C11.8201 12.5982 11.7714 12.5768 11.7303 12.5444H12.4878C12.4646 12.6089 12.4372 12.6209 12.3566 12.6108C12.2939 12.6044 12.2309 12.6101 12.1668 12.6101C12.1676 12.6183 12.1687 12.6281 12.1687 12.6374C12.2058 12.6558 12.2433 12.6749 12.2939 12.6989H11.9309" fill="#7B4022"/>
<path fill-rule="evenodd" clip-rule="evenodd" d="M11.9564 12.3646H12.2669V12.398H11.9564V12.3646ZM11.821 11.6173C11.7794 11.6465 11.7539 11.6773 11.731 11.6758C11.707 11.6739 11.6838 11.6424 11.6602 11.6225C11.6834 11.5989 11.7037 11.5633 11.731 11.5554C11.7494 11.5501 11.7787 11.5865 11.821 11.6173ZM12.4619 11.7151C12.4495 11.6855 12.424 11.6529 12.4289 11.6255C12.4338 11.5978 12.469 11.5756 12.4912 11.5513C12.5137 11.5719 12.5485 11.5899 12.5545 11.6135C12.5583 11.6353 12.5268 11.6634 12.5118 11.6885C12.4951 11.6972 12.4785 11.7061 12.4619 11.7151Z" fill="#FDD12E"/>
</svg>
