<svg width="24" height="24" viewBox="0 0 24 24" fill="none" xmlns="http://www.w3.org/2000/svg">
<path d="M1.66699 5.66699H22.3337V18.3337H1.66699V5.66699Z" fill="#1E50A0"/>
<path d="M1.66699 5.66699H22.3337V18.3337H1.66699V5.66699Z" fill="white"/>
<path d="M1.66699 14.0003H22.3337V18.3337H1.66699V14.0003ZM1.66699 5.66699H22.3337V10.0003H1.66699V5.66699Z" fill="#939393"/>
<path d="M12.0003 11.2993L12.4123 10.667L12.3923 11.4333L13.079 11.1763L12.6343 11.7837L13.3337 12.0003L12.6343 12.217L13.079 12.8243L12.3923 12.5673L12.4123 13.3337L12.0003 12.7013L11.5883 13.3337L11.6083 12.5673L10.9217 12.8243L11.3663 12.217L10.667 12.0003L11.3663 11.7837L10.9217 11.1763L11.6083 11.4333L11.5883 10.667L12.0003 11.2993Z" fill="#939393" stroke="#939393" stroke-width="0.333333" stroke-linecap="round" stroke-linejoin="round"/>
<path d="M1.66699 5.66699H22.3337V18.3337H1.66699V5.66699Z" stroke="#939393" stroke-width="0.666667" stroke-linecap="round" stroke-linejoin="round"/>
</svg>
