<svg xmlns="http://www.w3.org/2000/svg" version="1.1" viewBox="-5.0 -10.0 110.0 135.0">
 <path d="m69 95h-38c-10.5 0-19-8.5-19-19v-22c0-9.1016 6.3984-16.699 15-18.602v-7.3984c0-12.699 10.301-23 23-23s23 10.301 23 23v7.3984c8.6016 1.8008 15 9.5 15 18.602v22c0 10.5-8.5 19-19 19zm-38-52c-6.1016 0-11 4.8984-11 11v22c0 6.1016 4.8984 11 11 11h38c6.1016 0 11-4.8984 11-11v-22c0-6.1016-4.8984-11-11-11zm4-8h30v-7c0-8.3008-6.6992-15-15-15s-15 6.6992-15 15zm15 38c-4.3984 0-8-3.6016-8-8s3.6016-8 8-8 8 3.6016 8 8-3.6016 8-8 8z"/>
</svg>