<svg width="212" height="48" viewBox="0 0 212 48" fill="none" xmlns="http://www.w3.org/2000/svg">
<path d="M41.9117 30.5378C41.9117 31.6981 41.0458 32.6838 39.8958 32.8378C27.0407 34.5422 28.509 41.9417 18.2722 41.9417C15.8935 41.9315 13.9735 39.9977 13.9735 37.6191V23.2273C13.9735 22.0054 14.9318 20.9958 16.1536 20.9136C28.8341 20.0546 27.4206 11.6693 37.6164 11.6693H37.6814C40.0224 11.683 41.9151 13.586 41.9151 15.927V30.5378H41.9117ZM9.31196 23.2307C9.31196 19.572 12.1766 16.5157 15.8353 16.2692C16.8142 16.2042 17.6458 16.0742 18.4091 15.9167C17.7964 13.3738 15.8045 11.3271 13.1589 10.7316C10.26 10.0779 5.41368 9.16405 2.37104 8.10306C0.865126 7.57599 -0.507313 9.17089 0.18404 10.6084C2.70303 15.8654 6.98463 19.3872 6.98463 19.3872C6.98463 19.3872 3.32593 22.6044 0.738492 25.1542C-0.343031 26.222 -0.110299 28.0291 1.23476 28.7307C2.9563 29.6274 5.95102 30.6781 9.31538 31.39V23.2341L9.31196 23.2307ZM55.7011 45.3951C53.1821 40.138 48.9005 36.6197 48.9005 36.6197C48.9005 36.6197 52.5626 33.4025 55.15 30.8527C56.2316 29.7849 55.9988 27.9778 54.6538 27.2761C52.9322 26.3794 49.9375 25.3287 46.5732 24.6168V30.5378C46.5732 34.022 43.9686 36.9962 40.5118 37.4548C39.2558 37.6225 38.1914 37.8449 37.2604 38.1153V38.4576C37.2604 41.733 39.533 44.5531 42.7296 45.2719C45.6285 45.9221 50.4749 46.8394 53.5141 47.8969C55.02 48.424 56.3958 46.8291 55.7045 45.3882H55.7011V45.3951Z" fill="#8ACF8A"/>
<path d="M28.4778 35.4394V38.4307H27.3449V35.4668C23.7718 35.2649 22.8135 33.0539 22.8135 29.539H25.5755C25.5755 31.6301 25.9246 32.8212 27.3483 33.0265V27.9133L26.8829 27.7387C25.9246 27.3314 24.7027 26.8386 24.0353 26.1986C23.3371 25.5586 22.8135 24.5147 22.8135 23.0327C22.8135 20.2434 24.3228 18.2377 27.3449 18.0632V15.0719H28.4778V18.0632C31.5581 18.2651 32.7183 19.9798 32.7183 24.0766H30.0453C30.0453 21.5781 29.6106 20.678 28.4778 20.4727V25.6167C28.6523 25.6749 28.8269 25.7605 29.0014 25.8187C30.0179 26.226 31.007 26.6332 31.7052 27.2698C32.489 27.9372 33.0126 29.0119 33.0126 30.4083C33.0126 33.3996 31.6197 35.2307 28.4812 35.436L28.4778 35.4394ZM27.3449 25.0965V20.5069C26.2976 20.7088 25.8048 21.5542 25.8048 22.8308C25.8048 23.7891 26.0649 24.3128 26.5304 24.6619C26.7323 24.8056 27.0232 24.9528 27.3449 25.0965ZM29.9905 30.6445C29.9905 29.7717 29.7578 29.1933 29.265 28.8134C29.063 28.6389 28.7995 28.4951 28.4812 28.3479V32.9957C29.5559 32.8212 29.9905 32.0956 29.9905 30.641V30.6445Z" fill="white"/>
<path d="M85.4887 12.36C86.182 12.7067 86.582 13.2533 86.6887 14C86.822 14.7467 86.6353 15.4267 86.1287 16.04C85.782 16.52 85.3287 16.7867 84.7687 16.84C84.2353 16.8933 83.6887 16.7867 83.1287 16.52C82.4887 16.2267 81.8087 16 81.0887 15.84C80.3953 15.68 79.662 15.6 78.8887 15.6C77.4487 15.6 76.1553 15.8267 75.0087 16.28C73.8887 16.7333 72.9287 17.3867 72.1287 18.24C71.3287 19.0667 70.7153 20.0533 70.2887 21.2C69.8887 22.3467 69.6887 23.6133 69.6887 25C69.6887 26.6267 69.9153 28.04 70.3687 29.24C70.8487 30.44 71.502 31.44 72.3287 32.24C73.1553 33.04 74.1287 33.64 75.2487 34.04C76.3687 34.4133 77.582 34.6 78.8887 34.6C79.6087 34.6 80.3287 34.5333 81.0487 34.4C81.7687 34.2667 82.462 34.0267 83.1287 33.68C83.6887 33.4133 84.2353 33.32 84.7687 33.4C85.3287 33.48 85.7953 33.76 86.1687 34.24C86.702 34.9067 86.8887 35.6 86.7287 36.32C86.5953 37.0133 86.1953 37.52 85.5287 37.84C84.8353 38.1867 84.1153 38.48 83.3687 38.72C82.6487 38.9333 81.9153 39.0933 81.1687 39.2C80.422 39.3333 79.662 39.4 78.8887 39.4C76.9687 39.4 75.142 39.0933 73.4087 38.48C71.702 37.8667 70.1687 36.96 68.8087 35.76C67.4753 34.56 66.422 33.0667 65.6487 31.28C64.8753 29.4667 64.4887 27.3733 64.4887 25C64.4887 22.9467 64.8353 21.0533 65.5287 19.32C66.2487 17.5867 67.2487 16.0933 68.5287 14.84C69.8353 13.56 71.3687 12.5733 73.1287 11.88C74.8887 11.16 76.8087 10.8 78.8887 10.8C80.062 10.8 81.2087 10.9333 82.3287 11.2C83.4487 11.4667 84.502 11.8533 85.4887 12.36ZM107.887 17.2C108.58 17.2 109.153 17.4267 109.607 17.88C110.06 18.3333 110.287 18.92 110.287 19.64V36.56C110.287 37.2533 110.06 37.84 109.607 38.32C109.153 38.7733 108.58 39 107.887 39C107.193 39 106.62 38.7733 106.167 38.32C105.713 37.84 105.487 37.2533 105.487 36.56V34.6L106.367 34.96C106.367 35.3067 106.18 35.7333 105.807 36.24C105.433 36.72 104.927 37.2 104.287 37.68C103.647 38.16 102.887 38.5733 102.007 38.92C101.153 39.24 100.22 39.4 99.2068 39.4C97.3668 39.4 95.7001 38.9333 94.2068 38C92.7135 37.04 91.5268 35.7333 90.6468 34.08C89.7935 32.4 89.3668 30.48 89.3668 28.32C89.3668 26.1333 89.7935 24.2133 90.6468 22.56C91.5268 20.88 92.7001 19.5733 94.1668 18.64C95.6335 17.68 97.2601 17.2 99.0468 17.2C100.193 17.2 101.247 17.3733 102.207 17.72C103.167 18.0667 103.993 18.5067 104.687 19.04C105.407 19.5733 105.953 20.12 106.327 20.68C106.727 21.2133 106.927 21.6667 106.927 22.04L105.487 22.56V19.64C105.487 18.9467 105.713 18.3733 106.167 17.92C106.62 17.44 107.193 17.2 107.887 17.2ZM99.8068 35C100.98 35 102.007 34.7067 102.887 34.12C103.767 33.5333 104.447 32.7333 104.927 31.72C105.433 30.7067 105.687 29.5733 105.687 28.32C105.687 27.04 105.433 25.8933 104.927 24.88C104.447 23.8667 103.767 23.0667 102.887 22.48C102.007 21.8933 100.98 21.6 99.8068 21.6C98.6601 21.6 97.6468 21.8933 96.7668 22.48C95.8868 23.0667 95.1935 23.8667 94.6868 24.88C94.2068 25.8933 93.9668 27.04 93.9668 28.32C93.9668 29.5733 94.2068 30.7067 94.6868 31.72C95.1935 32.7333 95.8868 33.5333 96.7668 34.12C97.6468 34.7067 98.6601 35 99.8068 35ZM114.249 35.68C113.982 35.3067 113.862 34.8267 113.889 34.24C113.915 33.6533 114.262 33.1467 114.929 32.72C115.355 32.4533 115.809 32.3467 116.289 32.4C116.769 32.4267 117.235 32.6667 117.689 33.12C118.462 33.8933 119.275 34.4933 120.129 34.92C120.982 35.3467 122.049 35.56 123.329 35.56C123.729 35.5333 124.169 35.48 124.649 35.4C125.129 35.2933 125.542 35.08 125.889 34.76C126.262 34.4133 126.449 33.8933 126.449 33.2C126.449 32.6133 126.249 32.1467 125.849 31.8C125.449 31.4533 124.915 31.16 124.249 30.92C123.609 30.68 122.889 30.4533 122.089 30.24C121.262 30 120.409 29.7333 119.529 29.44C118.675 29.1467 117.889 28.7733 117.169 28.32C116.449 27.84 115.862 27.2133 115.409 26.44C114.955 25.6667 114.729 24.6933 114.729 23.52C114.729 22.1867 115.102 21.0533 115.849 20.12C116.595 19.1867 117.555 18.4667 118.729 17.96C119.929 17.4533 121.182 17.2 122.489 17.2C123.315 17.2 124.182 17.3067 125.089 17.52C125.995 17.7067 126.862 18.0267 127.689 18.48C128.515 18.9067 129.209 19.48 129.769 20.2C130.062 20.6 130.235 21.08 130.289 21.64C130.342 22.2 130.089 22.7067 129.529 23.16C129.129 23.48 128.662 23.6267 128.129 23.6C127.595 23.5467 127.155 23.36 126.809 23.04C126.355 22.4533 125.742 21.9867 124.969 21.64C124.222 21.2933 123.355 21.12 122.369 21.12C121.969 21.12 121.529 21.1733 121.049 21.28C120.595 21.36 120.195 21.56 119.849 21.88C119.502 22.1733 119.329 22.6533 119.329 23.32C119.329 23.9333 119.529 24.4267 119.929 24.8C120.329 25.1467 120.862 25.44 121.529 25.68C122.222 25.8933 122.955 26.1067 123.729 26.32C124.529 26.5333 125.342 26.7867 126.169 27.08C126.995 27.3733 127.755 27.76 128.449 28.24C129.142 28.72 129.702 29.3467 130.129 30.12C130.555 30.8667 130.769 31.8267 130.769 33C130.769 34.36 130.369 35.52 129.569 36.48C128.769 37.44 127.769 38.1733 126.569 38.68C125.369 39.16 124.142 39.4 122.889 39.4C121.315 39.4 119.742 39.1333 118.169 38.6C116.595 38.04 115.289 37.0667 114.249 35.68ZM146.026 17.2C147.946 17.2 149.399 17.6133 150.386 18.44C151.399 19.2667 152.092 20.3733 152.466 21.76C152.839 23.12 153.026 24.64 153.026 26.32V36.56C153.026 37.2533 152.799 37.84 152.346 38.32C151.892 38.7733 151.319 39 150.626 39C149.932 39 149.359 38.7733 148.906 38.32C148.452 37.84 148.226 37.2533 148.226 36.56V26.32C148.226 25.44 148.119 24.6533 147.906 23.96C147.692 23.24 147.306 22.6667 146.746 22.24C146.186 21.8133 145.386 21.6 144.346 21.6C143.332 21.6 142.466 21.8133 141.746 22.24C141.026 22.6667 140.479 23.24 140.106 23.96C139.759 24.6533 139.586 25.44 139.586 26.32V36.56C139.586 37.2533 139.359 37.84 138.906 38.32C138.452 38.7733 137.879 39 137.186 39C136.492 39 135.919 38.7733 135.466 38.32C135.012 37.84 134.786 37.2533 134.786 36.56V11.84C134.786 11.1467 135.012 10.5733 135.466 10.12C135.919 9.64 136.492 9.4 137.186 9.4C137.879 9.4 138.452 9.64 138.906 10.12C139.359 10.5733 139.586 11.1467 139.586 11.84V21.76L138.986 21.64C139.226 21.1867 139.559 20.7067 139.986 20.2C140.412 19.6667 140.932 19.1733 141.546 18.72C142.159 18.2667 142.839 17.9067 143.586 17.64C144.332 17.3467 145.146 17.2 146.026 17.2ZM160.983 39C160.343 39 159.823 38.8133 159.423 38.44C159.05 38.04 158.863 37.5467 158.863 36.96V13.04C158.863 12.4533 159.063 11.9733 159.463 11.6C159.863 11.2 160.343 11 160.903 11H174.423C175.01 11 175.49 11.1867 175.863 11.56C176.263 11.9333 176.463 12.4 176.463 12.96C176.463 13.4667 176.263 13.9067 175.863 14.28C175.49 14.6533 175.01 14.84 174.423 14.84H162.743L163.023 14.44V23.36L162.783 22.88H172.623C173.21 22.88 173.69 23.0667 174.063 23.44C174.463 23.8133 174.663 24.28 174.663 24.84C174.663 25.3467 174.463 25.7867 174.063 26.16C173.69 26.5333 173.21 26.72 172.623 26.72H162.703L163.023 26.4V36.96C163.023 37.5467 162.823 38.04 162.423 38.44C162.023 38.8133 161.543 39 160.983 39ZM185.282 36.96C185.282 37.5467 185.082 38.04 184.682 38.44C184.309 38.8133 183.842 39 183.282 39C182.722 39 182.242 38.8133 181.842 38.44C181.469 38.04 181.282 37.5467 181.282 36.96V11.44C181.282 10.8533 181.482 10.3733 181.882 10C182.282 9.6 182.762 9.4 183.322 9.4C183.909 9.4 184.375 9.6 184.722 10C185.095 10.3733 185.282 10.8533 185.282 11.44V36.96ZM206.29 17.8C206.876 17.8 207.356 18 207.73 18.4C208.103 18.7733 208.29 19.2533 208.29 19.84V37.04C208.29 39.3867 207.836 41.2933 206.93 42.76C206.05 44.2267 204.85 45.2933 203.33 45.96C201.836 46.6533 200.143 47 198.25 47C197.29 47 196.33 46.9067 195.37 46.72C194.41 46.56 193.623 46.32 193.01 46C192.37 45.7067 191.916 45.3467 191.65 44.92C191.383 44.4933 191.343 44.0267 191.53 43.52C191.716 42.88 192.036 42.44 192.49 42.2C192.943 41.9867 193.41 41.9733 193.89 42.16C194.343 42.3467 194.943 42.5867 195.69 42.88C196.436 43.1733 197.29 43.32 198.25 43.32C199.556 43.32 200.663 43.1067 201.57 42.68C202.476 42.2533 203.156 41.5867 203.61 40.68C204.09 39.7733 204.33 38.6 204.33 37.16V34.4L204.97 35.36C204.543 36.24 203.983 36.9733 203.29 37.56C202.596 38.1467 201.77 38.6 200.81 38.92C199.876 39.24 198.836 39.4 197.69 39.4C196.223 39.4 194.956 39.08 193.89 38.44C192.85 37.7733 192.05 36.8667 191.49 35.72C190.93 34.5467 190.65 33.2133 190.65 31.72V19.84C190.65 19.2533 190.836 18.7733 191.21 18.4C191.583 18 192.063 17.8 192.65 17.8C193.21 17.8 193.676 18 194.05 18.4C194.45 18.7733 194.65 19.2533 194.65 19.84V30.64C194.65 32.4 195.036 33.6933 195.81 34.52C196.583 35.32 197.73 35.72 199.25 35.72C200.263 35.72 201.143 35.5067 201.89 35.08C202.636 34.6533 203.223 34.0667 203.65 33.32C204.076 32.5467 204.29 31.6533 204.29 30.64V19.84C204.29 19.2533 204.476 18.7733 204.85 18.4C205.25 18 205.73 17.8 206.29 17.8Z" fill="black"/>
</svg>
