<svg width="140" height="140" viewBox="0 0 140 140" fill="none" xmlns="http://www.w3.org/2000/svg">
<path fill-rule="evenodd" clip-rule="evenodd" d="M70 9.76744C36.7345 9.76744 9.76744 36.7345 9.76744 70C9.76744 103.265 36.7345 130.233 70 130.233C103.265 130.233 130.233 103.265 130.233 70C130.233 36.7345 103.265 9.76744 70 9.76744ZM0 70C0 31.3401 31.3401 0 70 0C108.66 0 140 31.3401 140 70C140 108.66 108.66 140 70 140C31.3401 140 0 108.66 0 70Z" fill="#DEDFFB"/>
<path fill-rule="evenodd" clip-rule="evenodd" d="M96.2434 50.2644C98.1507 52.1716 98.1507 55.2638 96.2434 57.1708L63.6853 89.7289C61.778 91.6362 58.6863 91.6362 56.7788 89.7289L43.7556 76.7057C41.8484 74.7984 41.8484 71.7067 43.7556 69.7994C45.6628 67.8922 48.755 67.8922 50.6622 69.7994L60.2322 79.3689L89.3372 50.2644C91.2444 48.3572 94.3362 48.3572 96.2434 50.2644Z" fill="#A774FF"/>
</svg>
