<svg width="30" height="30" viewBox="0 0 30 30" fill="none" xmlns="http://www.w3.org/2000/svg">
<circle cx="15" cy="15" r="15" fill="#F0F0F0"/>
<mask id="mask0_507_617" style="mask-type:alpha" maskUnits="userSpaceOnUse" x="3" y="3" width="24" height="24">
<rect x="3.75" y="3.75" width="22.5" height="22.5" fill="#D9D9D9"/>
</mask>
<g mask="url(#mask0_507_617)">
<path d="M15 15C13.9688 15 13.0859 14.6328 12.3516 13.8984C11.6172 13.1641 11.25 12.2812 11.25 11.25C11.25 10.2188 11.6172 9.33594 12.3516 8.60156C13.0859 7.86719 13.9688 7.5 15 7.5C16.0312 7.5 16.9141 7.86719 17.6484 8.60156C18.3828 9.33594 18.75 10.2188 18.75 11.25C18.75 12.2812 18.3828 13.1641 17.6484 13.8984C16.9141 14.6328 16.0312 15 15 15ZM7.5 22.5V19.875C7.5 19.3438 7.63672 18.8555 7.91016 18.4102C8.18359 17.9648 8.54688 17.625 9 17.3906C9.96875 16.9062 10.9531 16.543 11.9531 16.3008C12.9531 16.0586 13.9688 15.9375 15 15.9375C16.0312 15.9375 17.0469 16.0586 18.0469 16.3008C19.0469 16.543 20.0313 16.9062 21 17.3906C21.4531 17.625 21.8164 17.9648 22.0898 18.4102C22.3633 18.8555 22.5 19.3438 22.5 19.875V22.5H7.5Z" fill="#1C1B1F"/>
</g>
</svg>
