<svg xmlns="http://www.w3.org/2000/svg" data-name="Layer 1" viewBox="0 0 64 80" x="0px" y="0px"><path d="M44.8007812,16.8095703c-1.1044922,0-2,.8955078-2,2v27.5004883c0,5.9560547-4.8447266,10.8012695-10.8007812,10.8012695s-10.8007812-4.8452148-10.8007812-10.8012695V14.0883789c0-3.9697266,3.2294922-7.199707,7.1992188-7.199707s7.1992188,3.2299805,7.1992188,7.199707v27.3544922c0,1.769043-1.4394531,3.2080078-3.2080078,3.2080078s-3.2080078-1.4389648-3.2080078-3.2080078V18.1279297c0-1.1044922-.8955078-2-2-2s-2,.8955078-2,2v23.3149414c0,3.9746094,3.2333984,7.2080078,7.2080078,7.2080078s7.2080078-3.2333984,7.2080078-7.2080078V14.0883789c0-6.1757812-5.0244141-11.199707-11.1992188-11.199707s-11.1992188,5.0239258-11.1992188,11.199707V46.3100586c0,8.1616211,6.6396484,14.8012695,14.8007812,14.8012695s14.8007812-6.6396484,14.8007812-14.8012695V18.8095703c0-1.1044922-.8955078-2-2-2Z"/></svg>