<svg width="293" height="164" viewBox="0 0 293 164" fill="none" xmlns="http://www.w3.org/2000/svg">
<path d="M226.151 46.7803L187.154 76.534C186.834 76.7732 186.616 77.1249 186.544 77.5184C186.511 77.6921 186.52 77.8713 186.571 78.0406C186.622 78.2099 186.714 78.3643 186.838 78.4904L215.362 106.215C216.05 105.08 216.524 103.83 216.76 102.524L226.114 49.477C226.262 48.5851 226.274 47.676 226.151 46.7803Z" fill="#A774FF"/>
<path d="M182.453 80.4876C182.123 80.4932 181.804 80.6062 181.545 80.8095L170.361 89.342L170.01 89.5647L169.756 89.6779L169.455 89.7671L169.158 89.8147H168.878L168.581 89.7645L168.323 89.6778L168.104 89.5607L167.836 89.3419L159.661 80.8094C159.558 80.7046 159.434 80.622 159.297 80.5666C159.161 80.5113 159.014 80.4844 158.867 80.4876C158.551 80.4921 158.245 80.5959 157.992 80.7843L118.525 109.352C119.285 110.207 120.221 110.887 121.27 111.344C122.318 111.801 123.454 112.024 124.597 111.998H205.61C208.18 111.946 210.653 111.012 212.615 109.352L183.223 80.7843C183.015 80.588 182.738 80.4814 182.453 80.4876Z" fill="#A774FF"/>
<path d="M169.875 84.944C170.205 84.939 170.523 84.8259 170.783 84.6222L224.881 43.3458C224.149 42.286 223.165 41.4253 222.017 40.8416C220.869 40.2579 219.593 39.9695 218.306 40.0025H137.293C134.374 40.0782 131.597 41.2756 129.538 43.3458L169.081 84.6222C169.184 84.7272 169.308 84.8099 169.444 84.8653C169.581 84.9206 169.727 84.9474 169.875 84.944Z" fill="#A774FF"/>
<path d="M155.825 77.5184C155.864 77.3453 155.86 77.1654 155.815 76.994C155.769 76.8226 155.682 76.6648 155.563 76.534L127.058 46.7803C126.633 47.6339 126.326 48.5411 126.144 49.477L116.791 102.524C116.565 103.748 116.598 105.005 116.888 106.215L155.189 78.4902C155.515 78.2576 155.743 77.9107 155.825 77.5184Z" fill="#A774FF"/>
<path d="M25.3051 53.4473L114.412 53.4473M3 70.1192H109.404M25.3051 86.8479H104.397M3 102.894H100.585" stroke="#A774FF" stroke-width="6" stroke-linecap="round" stroke-linejoin="round"/>
<path d="M52.562 127.69L51.4579 142.584C51.441 142.836 51.2135 143.03 50.9606 143.013C50.7246 142.997 50.5476 142.811 50.5308 142.584L49.4266 127.69C49.3592 126.822 50.0166 126.064 50.8848 126.005C51.7529 125.937 52.5115 126.595 52.5705 127.463C52.5705 127.539 52.5705 127.623 52.5705 127.699L52.562 127.69Z" fill="#DEDFFB"/>
<path d="M49.4176 162.206L50.5217 147.313C50.5386 147.06 50.7662 146.866 51.019 146.883C51.255 146.9 51.432 147.085 51.4489 147.313L52.553 162.206C52.6204 163.074 51.963 163.833 51.0949 163.892C50.2267 163.959 49.4682 163.302 49.4092 162.433C49.4092 162.358 49.4092 162.273 49.4092 162.197L49.4176 162.206Z" fill="#DEDFFB"/>
<path d="M33.6905 143.418L48.5836 144.522C48.8448 144.539 49.0303 144.766 49.0134 145.019C48.9966 145.255 48.8111 145.432 48.5836 145.449L33.6905 146.553C32.8223 146.62 32.0638 145.963 32.0048 145.095C31.9373 144.227 32.5947 143.468 33.4629 143.409C33.5387 143.409 33.623 143.409 33.6989 143.409L33.6905 143.418Z" fill="#DEDFFB"/>
<path d="M68.2136 146.56L53.3205 145.456C53.0677 145.439 52.8738 145.212 52.8907 144.959C52.9075 144.723 53.093 144.546 53.3205 144.529L68.2136 143.425C69.0818 143.357 69.8403 144.015 69.8993 144.883C69.9668 145.751 69.3093 146.509 68.4412 146.568C68.3653 146.568 68.2811 146.568 68.2052 146.568L68.2136 146.56Z" fill="#DEDFFB"/>
<path d="M52.6037 149.741H49.3841C49.3841 148.004 47.9765 146.597 46.2402 146.597V143.377C47.9765 143.377 49.3841 141.97 49.3841 140.233H52.6037C52.6037 141.97 54.0113 143.377 55.7476 143.377V146.597C54.0113 146.597 52.6037 148.004 52.6037 149.741Z" fill="#DEDFFB"/>
<path d="M64.2951 133.887L52.9841 143.63C52.7902 143.798 52.4952 143.773 52.3267 143.579C52.175 143.402 52.175 143.141 52.3267 142.972L62.07 131.661C62.6347 131.004 63.6377 130.928 64.2951 131.493C64.9525 132.058 65.0284 133.061 64.4637 133.718C64.4131 133.777 64.3541 133.836 64.2951 133.887Z" fill="#DEDFFB"/>
<path d="M37.6604 156.072L48.9714 146.329C49.1653 146.16 49.4603 146.186 49.6289 146.379C49.7806 146.556 49.7806 146.818 49.6289 146.986L39.8856 158.297C39.3208 158.955 38.3179 159.031 37.6604 158.466C37.003 157.901 36.9272 156.898 37.4919 156.241C37.5424 156.182 37.6014 156.123 37.6604 156.072Z" fill="#DEDFFB"/>
<path d="M39.8348 131.661L49.5781 142.972C49.7467 143.166 49.7214 143.461 49.5275 143.63C49.3505 143.782 49.0892 143.782 48.9207 143.63L37.6097 133.887C36.9522 133.322 36.8764 132.319 37.4411 131.661C38.0058 131.004 39.0088 130.928 39.6662 131.493C39.7252 131.543 39.7842 131.602 39.8348 131.661Z" fill="#DEDFFB"/>
<path d="M62.0185 158.295L52.2752 146.984C52.1066 146.79 52.1319 146.495 52.3258 146.327C52.5028 146.175 52.764 146.175 52.9326 146.327L64.2436 156.07C64.901 156.635 64.9769 157.638 64.4122 158.295C63.8475 158.953 62.8445 159.028 62.1871 158.464C62.1281 158.413 62.0691 158.354 62.0185 158.295Z" fill="#DEDFFB"/>
<path d="M48.7356 149.506L46.46 147.23C47.6905 146 47.6905 144.011 46.46 142.788L48.7356 140.513C49.9662 141.743 51.9553 141.743 53.1775 140.513L55.4531 142.788C54.2226 144.019 54.2226 146.008 55.4531 147.23L53.1775 149.506C51.9469 148.275 49.9578 148.275 48.7356 149.506Z" fill="#DEDFFB"/>
<path d="M221.5 127.5C234.755 127.5 245.5 116.755 245.5 103.5C245.5 90.2452 234.755 79.5 221.5 79.5C208.245 79.5 197.5 90.2452 197.5 103.5C197.5 116.755 208.245 127.5 221.5 127.5Z" fill="#86C832" stroke="white" stroke-width="3"/>
<path d="M235.627 90.114C234.953 89.6094 234.001 89.7435 233.492 90.4175L232.024 92.3725L218.082 110.938L209.097 105.366C208.385 104.925 207.442 105.14 206.998 105.856C206.553 106.573 206.772 107.511 207.488 107.956L217.658 114.266C217.909 114.421 218.188 114.495 218.463 114.495C218.929 114.495 219.384 114.283 219.684 113.884L234.156 94.6168L235.934 92.249C236.439 91.5749 236.305 90.6186 235.631 90.114H235.627Z" fill="white"/>
<path d="M267.101 2.72687L266.124 22.9519C266.079 23.8485 265.319 24.5408 264.422 24.4954C263.582 24.45 262.912 23.769 262.878 22.9519L261.902 2.72687C261.834 1.28547 262.947 0.0710652 264.377 0.00296757C265.818 -0.0651301 267.032 1.04713 267.101 2.47718C267.101 2.55663 267.101 2.64743 267.101 2.72687Z" fill="#DEDFFB"/>
<path d="M261.903 54.2731L262.879 34.0481C262.925 33.1515 263.685 32.4592 264.582 32.5046C265.422 32.55 266.091 33.2309 266.125 34.0481L267.101 54.2731C267.17 55.7145 266.057 56.9289 264.627 56.997C263.186 57.0651 261.971 55.9528 261.903 54.5228C261.903 54.4433 261.903 54.3525 261.903 54.2731Z" fill="#DEDFFB"/>
<path d="M238.727 25.8906L258.952 26.8667C259.848 26.9121 260.541 27.6725 260.495 28.5691C260.45 29.409 259.769 30.0786 258.952 30.1127L238.727 31.0887C237.285 31.1568 236.071 30.0446 236.003 28.6145C235.935 27.1731 237.047 25.9587 238.477 25.8906C238.557 25.8906 238.647 25.8906 238.727 25.8906Z" fill="#DEDFFB"/>
<path d="M290.276 31.0976L270.051 30.1215C269.154 30.0761 268.462 29.3157 268.507 28.4191C268.552 27.5792 269.233 26.9096 270.051 26.8755L290.276 25.8995C291.717 25.8314 292.931 26.9436 292.999 28.3737C293.068 29.8151 291.955 31.0295 290.525 31.0976C290.446 31.0976 290.355 31.0976 290.276 31.0976Z" fill="#DEDFFB"/>
<path d="M244.436 44.8928L259.429 31.2846C260.099 30.6831 261.12 30.7285 261.733 31.3981C262.301 32.0223 262.289 32.9757 261.733 33.5886L248.125 48.5814C247.16 49.6483 245.514 49.7277 244.448 48.763C243.381 47.7983 243.301 46.1526 244.266 45.0857C244.323 45.029 244.379 44.9609 244.448 44.9041L244.436 44.8928Z" fill="#DEDFFB"/>
<path d="M284.566 12.105L269.573 25.7131C268.903 26.3147 267.882 26.2693 267.269 25.5996C266.702 24.9754 266.713 24.022 267.269 23.4092L280.877 8.41633C281.842 7.34947 283.488 7.27002 284.554 8.23474C285.621 9.19945 285.701 10.8451 284.736 11.912C284.679 11.9688 284.623 12.0369 284.554 12.0936L284.566 12.105Z" fill="#DEDFFB"/>
<path d="M280.888 48.5663L267.28 33.5735C266.679 32.9039 266.724 31.8824 267.394 31.2695C268.018 30.702 268.971 30.7134 269.584 31.2695L284.577 44.8777C285.644 45.8424 285.723 47.4881 284.759 48.555C283.794 49.6218 282.148 49.7013 281.081 48.7366C281.025 48.6798 280.956 48.6231 280.9 48.555L280.888 48.5663Z" fill="#DEDFFB"/>
<path d="M248.114 8.42549L261.722 23.4183C262.323 24.0879 262.278 25.1094 261.608 25.7223C260.984 26.2898 260.031 26.2784 259.418 25.7223L244.425 12.1141C243.358 11.1494 243.279 9.5037 244.244 8.43684C245.208 7.36997 246.854 7.29053 247.921 8.25524C247.978 8.31199 248.046 8.36874 248.102 8.43684L248.114 8.42549Z" fill="#DEDFFB"/>
<path d="M226.151 46.7803L187.154 76.534C186.834 76.7732 186.616 77.1249 186.544 77.5184C186.511 77.6921 186.52 77.8713 186.571 78.0406C186.622 78.2099 186.714 78.3643 186.838 78.4904L215.362 106.215C216.05 105.08 216.524 103.83 216.76 102.524L226.114 49.477C226.262 48.5851 226.274 47.676 226.151 46.7803Z" fill="#DEDFFB"/>
<path d="M182.453 80.4876C182.123 80.4932 181.804 80.6062 181.545 80.8095L170.361 89.342L170.01 89.5647L169.756 89.6779L169.455 89.7671L169.158 89.8147H168.878L168.581 89.7645L168.323 89.6778L168.104 89.5607L167.836 89.3419L159.661 80.8094C159.558 80.7046 159.434 80.622 159.297 80.5666C159.161 80.5113 159.014 80.4844 158.867 80.4876C158.551 80.4921 158.245 80.5959 157.992 80.7843L118.525 109.352C119.285 110.207 120.221 110.887 121.27 111.344C122.318 111.801 123.454 112.024 124.597 111.998H205.61C208.18 111.946 210.653 111.012 212.615 109.352L183.223 80.7843C183.015 80.588 182.738 80.4814 182.453 80.4876Z" fill="#DEDFFB"/>
<path d="M169.875 84.944C170.205 84.939 170.523 84.8259 170.783 84.6222L224.881 43.3458C224.149 42.286 223.165 41.4253 222.017 40.8416C220.869 40.2579 219.593 39.9695 218.306 40.0025H137.293C134.374 40.0782 131.597 41.2756 129.538 43.3458L169.081 84.6222C169.184 84.7272 169.308 84.8099 169.444 84.8653C169.581 84.9206 169.727 84.9474 169.875 84.944Z" fill="#DEDFFB"/>
<path d="M155.825 77.5184C155.864 77.3453 155.86 77.1654 155.815 76.994C155.769 76.8226 155.682 76.6648 155.563 76.534L127.058 46.7803C126.633 47.6339 126.326 48.5411 126.144 49.477L116.791 102.524C116.565 103.748 116.598 105.005 116.888 106.215L155.189 78.4902C155.515 78.2576 155.743 77.9107 155.825 77.5184Z" fill="#DEDFFB"/>
<path d="M25.3051 53.4473L114.412 53.4473M3 70.1192H109.404M25.3051 86.8479H104.397M3 102.894H100.585" stroke="#DEDFFB" stroke-width="6" stroke-linecap="round" stroke-linejoin="round"/>
<path d="M52.562 127.69L51.4579 142.584C51.441 142.836 51.2135 143.03 50.9606 143.013C50.7246 142.997 50.5476 142.811 50.5308 142.584L49.4266 127.69C49.3592 126.822 50.0166 126.064 50.8848 126.005C51.7529 125.937 52.5115 126.595 52.5705 127.463C52.5705 127.539 52.5705 127.623 52.5705 127.699L52.562 127.69Z" fill="#A1C8A1"/>
<path d="M49.4176 162.206L50.5217 147.313C50.5386 147.06 50.7662 146.866 51.019 146.883C51.255 146.9 51.432 147.085 51.4489 147.313L52.553 162.206C52.6204 163.074 51.963 163.833 51.0949 163.892C50.2267 163.959 49.4682 163.302 49.4092 162.433C49.4092 162.358 49.4092 162.273 49.4092 162.197L49.4176 162.206Z" fill="#A1C8A1"/>
<path d="M33.6905 143.418L48.5836 144.522C48.8448 144.539 49.0303 144.766 49.0134 145.019C48.9966 145.255 48.8111 145.432 48.5836 145.449L33.6905 146.553C32.8223 146.62 32.0638 145.963 32.0048 145.095C31.9373 144.227 32.5947 143.468 33.4629 143.409C33.5387 143.409 33.623 143.409 33.6989 143.409L33.6905 143.418Z" fill="#A1C8A1"/>
<path d="M68.2136 146.56L53.3205 145.456C53.0677 145.439 52.8738 145.212 52.8907 144.959C52.9075 144.723 53.093 144.546 53.3205 144.529L68.2136 143.425C69.0818 143.357 69.8403 144.015 69.8993 144.883C69.9668 145.751 69.3093 146.509 68.4412 146.568C68.3653 146.568 68.2811 146.568 68.2052 146.568L68.2136 146.56Z" fill="#A1C8A1"/>
<path d="M52.6037 149.741H49.3841C49.3841 148.004 47.9765 146.597 46.2402 146.597V143.377C47.9765 143.377 49.3841 141.97 49.3841 140.233H52.6037C52.6037 141.97 54.0113 143.377 55.7476 143.377V146.597C54.0113 146.597 52.6037 148.004 52.6037 149.741Z" fill="#A1C8A1"/>
<path d="M64.2951 133.887L52.9841 143.63C52.7902 143.798 52.4952 143.773 52.3267 143.579C52.175 143.402 52.175 143.141 52.3267 142.972L62.07 131.661C62.6347 131.004 63.6377 130.928 64.2951 131.493C64.9525 132.058 65.0284 133.061 64.4637 133.718C64.4131 133.777 64.3541 133.836 64.2951 133.887Z" fill="#A1C8A1"/>
<path d="M37.6604 156.072L48.9714 146.329C49.1653 146.16 49.4603 146.186 49.6289 146.379C49.7806 146.556 49.7806 146.818 49.6289 146.986L39.8856 158.297C39.3208 158.955 38.3179 159.031 37.6604 158.466C37.003 157.901 36.9272 156.898 37.4919 156.241C37.5424 156.182 37.6014 156.123 37.6604 156.072Z" fill="#A1C8A1"/>
<path d="M39.8348 131.661L49.5781 142.972C49.7467 143.166 49.7214 143.461 49.5275 143.63C49.3505 143.782 49.0892 143.782 48.9207 143.63L37.6097 133.887C36.9522 133.322 36.8764 132.319 37.4411 131.661C38.0058 131.004 39.0088 130.928 39.6662 131.493C39.7252 131.543 39.7842 131.602 39.8348 131.661Z" fill="#A1C8A1"/>
<path d="M62.0185 158.295L52.2752 146.984C52.1066 146.79 52.1319 146.495 52.3258 146.327C52.5028 146.175 52.764 146.175 52.9326 146.327L64.2436 156.07C64.901 156.635 64.9769 157.638 64.4122 158.295C63.8475 158.953 62.8445 159.028 62.1871 158.464C62.1281 158.413 62.0691 158.354 62.0185 158.295Z" fill="#A1C8A1"/>
<path d="M48.7356 149.506L46.46 147.23C47.6905 146 47.6905 144.011 46.46 142.788L48.7356 140.513C49.9662 141.743 51.9553 141.743 53.1775 140.513L55.4531 142.788C54.2226 144.019 54.2226 146.008 55.4531 147.23L53.1775 149.506C51.9469 148.275 49.9578 148.275 48.7356 149.506Z" fill="#A1C8A1"/>
<path d="M221.5 127.5C234.755 127.5 245.5 116.755 245.5 103.5C245.5 90.2452 234.755 79.5 221.5 79.5C208.245 79.5 197.5 90.2452 197.5 103.5C197.5 116.755 208.245 127.5 221.5 127.5Z" fill="#A1C8A1" stroke="white" stroke-width="3"/>
<path d="M235.627 90.114C234.953 89.6094 234.001 89.7435 233.492 90.4175L232.024 92.3725L218.082 110.938L209.097 105.366C208.385 104.925 207.442 105.14 206.998 105.856C206.553 106.573 206.772 107.511 207.488 107.956L217.658 114.266C217.909 114.421 218.188 114.495 218.463 114.495C218.929 114.495 219.384 114.283 219.684 113.884L234.156 94.6168L235.934 92.249C236.439 91.5749 236.305 90.6186 235.631 90.114H235.627Z" fill="white"/>
<path d="M267.101 2.72687L266.124 22.9519C266.079 23.8485 265.319 24.5408 264.422 24.4954C263.582 24.45 262.912 23.769 262.878 22.9519L261.902 2.72687C261.834 1.28547 262.947 0.0710652 264.377 0.00296757C265.818 -0.0651301 267.032 1.04713 267.101 2.47718C267.101 2.55663 267.101 2.64743 267.101 2.72687Z" fill="#BFE2BF"/>
<path d="M261.903 54.2731L262.879 34.0481C262.925 33.1515 263.685 32.4592 264.582 32.5046C265.422 32.55 266.091 33.2309 266.125 34.0481L267.101 54.2731C267.17 55.7145 266.057 56.9289 264.627 56.997C263.186 57.0651 261.971 55.9528 261.903 54.5228C261.903 54.4433 261.903 54.3525 261.903 54.2731Z" fill="#BFE2BF"/>
<path d="M238.727 25.8906L258.952 26.8667C259.848 26.9121 260.541 27.6725 260.495 28.5691C260.45 29.409 259.769 30.0786 258.952 30.1127L238.727 31.0887C237.285 31.1568 236.071 30.0446 236.003 28.6145C235.935 27.1731 237.047 25.9587 238.477 25.8906C238.557 25.8906 238.647 25.8906 238.727 25.8906Z" fill="#BFE2BF"/>
<path d="M290.276 31.0976L270.051 30.1215C269.154 30.0761 268.462 29.3157 268.507 28.4191C268.552 27.5792 269.233 26.9096 270.051 26.8755L290.276 25.8995C291.717 25.8314 292.931 26.9436 292.999 28.3737C293.068 29.8151 291.955 31.0295 290.525 31.0976C290.446 31.0976 290.355 31.0976 290.276 31.0976Z" fill="#BFE2BF"/>
<path d="M244.436 44.8928L259.429 31.2846C260.099 30.6831 261.12 30.7285 261.733 31.3981C262.301 32.0223 262.289 32.9757 261.733 33.5886L248.125 48.5814C247.16 49.6483 245.514 49.7277 244.448 48.763C243.381 47.7983 243.301 46.1526 244.266 45.0857C244.323 45.029 244.379 44.9609 244.448 44.9041L244.436 44.8928Z" fill="#BFE2BF"/>
<path d="M284.566 12.105L269.573 25.7131C268.903 26.3147 267.882 26.2693 267.269 25.5996C266.702 24.9754 266.713 24.022 267.269 23.4092L280.877 8.41633C281.842 7.34947 283.488 7.27002 284.554 8.23474C285.621 9.19945 285.701 10.8451 284.736 11.912C284.679 11.9688 284.623 12.0369 284.554 12.0936L284.566 12.105Z" fill="#BFE2BF"/>
<path d="M280.888 48.5663L267.28 33.5735C266.679 32.9039 266.724 31.8824 267.394 31.2695C268.018 30.702 268.971 30.7134 269.584 31.2695L284.577 44.8777C285.644 45.8424 285.723 47.4881 284.759 48.555C283.794 49.6218 282.148 49.7013 281.081 48.7366C281.025 48.6798 280.956 48.6231 280.9 48.555L280.888 48.5663Z" fill="#BFE2BF"/>
<path d="M248.114 8.42549L261.722 23.4183C262.323 24.0879 262.278 25.1094 261.608 25.7223C260.984 26.2898 260.031 26.2784 259.418 25.7223L244.425 12.1141C243.358 11.1494 243.279 9.5037 244.244 8.43684C245.208 7.36997 246.854 7.29053 247.921 8.25524C247.978 8.31199 248.046 8.36874 248.102 8.43684L248.114 8.42549Z" fill="#BFE2BF"/>
</svg>
