<?xml version="1.0" encoding="UTF-8" standalone="no"?>
<svg
   width="40"
   height="40"
   viewBox="0 0 40 40"
   fill="none"
   version="1.1"
   id="svg8"
   sodipodi:docname="logo.svg"
   inkscape:version="1.1.2 (b8e25be833, 2022-02-05)"
   xmlns:inkscape="http://www.inkscape.org/namespaces/inkscape"
   xmlns:sodipodi="http://sodipodi.sourceforge.net/DTD/sodipodi-0.dtd"
   xmlns="http://www.w3.org/2000/svg"
   xmlns:svg="http://www.w3.org/2000/svg">
  <defs
     id="defs12" />
  <sodipodi:namedview
     id="namedview10"
     pagecolor="#ffffff"
     bordercolor="#666666"
     borderopacity="1.0"
     inkscape:pageshadow="2"
     inkscape:pageopacity="0.0"
     inkscape:pagecheckerboard="0"
     showgrid="false"
     inkscape:zoom="13.8875"
     inkscape:cx="38.919892"
     inkscape:cy="13.033303"
     inkscape:window-width="1920"
     inkscape:window-height="1027"
     inkscape:window-x="-8"
     inkscape:window-y="-8"
     inkscape:window-maximized="1"
     inkscape:current-layer="svg8" />
  <path
     d="m 28.931074,21.538845 c 0,0.7252 -0.5412,1.3412 -1.2599,1.4375 -8.0345,1.0653 -7.1168,5.69 -13.5148,5.69 -1.48666,-0.0064 -2.68669,-1.215 -2.68669,-2.7017 v -8.99486 c 0,-0.76365 0.59895,-1.39468 1.36259,-1.44602 7.9253,-0.53691 7.0419,-5.7776798 13.4142,-5.7776798 h 0.0407 c 1.4631,0.00856 2.646,1.1978898 2.646,2.6610298 v 9.13173 z M 8.5562436,16.971925 c 0,-2.28668 1.7904204,-4.19689 4.0771004,-4.3509 0.61183,-0.04065 1.13163,-0.12193 1.60863,-0.22033 -0.3829,-1.58934 -1.62788,-2.8685198 -3.28139,-3.2407198 -1.8118104,-0.40856 -4.8407604,-0.9797 -6.7424104,-1.642817 -0.941197,-0.32942 -1.798971,0.667395 -1.366875,1.565817 1.574365,3.2856298 4.250365,5.4867598 4.250365,5.4867598 0,0 -2.28668,2.01074 -3.903833,3.60441 -0.675952,0.6673 -0.5304936,1.7968 0.310168,2.2353 1.075965,0.5604 2.947665,1.2171 5.050385,1.6621 v -5.09748 z m 28.9932304,13.85272 c -1.5744,-3.2856 -4.2504,-5.4846 -4.2504,-5.4846 0,0 2.2888,-2.0107 3.906,-3.6044 0.6759,-0.6674 0.5305,-1.7968 -0.3102,-2.2353 -1.076,-0.5605 -2.9477,-1.2172 -5.0504,-1.6621 v 3.7006 c 0,2.1776 -1.6278,4.0365 -3.7883,4.3231 -0.785,0.1048 -1.4503,0.2439 -2.0321,0.4129 v 0.2139 c 0,2.0471 1.4203,3.8097 3.4182,4.2589 1.8118,0.4064 4.8408,0.9797 6.7403,1.6407 0.9412,0.3294 1.8011,-0.6674 1.369,-1.568 h -0.0021 z"
     fill="#8acf8a"
     id="path2" />
  <path
     d="m 20.535274,24.602345 v 1.8696 h -0.7081 v -1.8525 c -2.2332,-0.1262 -2.8321,-1.508 -2.8321,-3.7049 h 1.7262 c 0,1.307 0.2182,2.0514 1.1081,2.1798 v -3.1958 l -0.2909,-0.1091 c -0.599,-0.2546 -1.3626,-0.5626 -1.7798,-0.9626 -0.4363,-0.4 -0.7636,-1.0524 -0.7636,-1.97866 0,-1.74336 0.9433,-2.99686 2.8321,-3.10596 v -1.86956 h 0.7081 v 1.86956 c 1.9252,0.12621 2.6503,1.19789 2.6503,3.75842 h -1.6706 c 0,-1.56157 -0.2717,-2.12415 -0.9797,-2.2525 v 3.2151 c 0.1091,0.0363 0.2182,0.0898 0.3273,0.1262 0.6353,0.2545 1.2535,0.5091 1.6898,0.9069 0.4899,0.4172 0.8172,1.0888 0.8172,1.9616 0,1.8695 -0.8706,3.014 -2.8322,3.1423 z m -0.7081,-6.4643 v -2.86851 c -0.6545,0.12621 -0.9625,0.65456 -0.9625,1.45244 0,0.59895 0.1625,0.92627 0.4534,1.14437 0.1262,0.0899 0.3081,0.1819 0.5091,0.2717 z m 1.6536,3.4675 c 0,-0.5455 -0.1455,-0.907 -0.4535,-1.1444 -0.1262,-0.1091 -0.2909,-0.199 -0.4899,-0.291 v 2.9049 c 0.6717,-0.1091 0.9434,-0.5626 0.9434,-1.4717 z"
     fill="#ffffff"
     id="path4" />
</svg>
