<svg width="21" height="20" viewBox="0 0 21 20" fill="none" xmlns="http://www.w3.org/2000/svg">
<g clip-path="url(#clip0_830_2226)">
<path d="M10.334 1.802C13.004 1.802 13.321 1.812 14.376 1.861C17.086 1.984 18.352 3.27 18.476 5.96C18.524 7.014 18.533 7.33 18.533 10C18.533 12.672 18.523 12.988 18.475 14.042C18.351 16.729 17.089 18.017 14.376 18.141C13.321 18.189 13.006 18.199 10.334 18.199C7.66396 18.199 7.34796 18.189 6.29396 18.141C3.57696 18.017 2.31796 16.725 2.19396 14.041C2.14596 12.987 2.13596 12.671 2.13596 10C2.13596 7.33 2.14596 7.014 2.19396 5.96C2.31796 3.27 3.58096 1.983 6.29396 1.86C7.34796 1.812 7.66396 1.802 10.334 1.802ZM10.334 0C7.61896 0 7.27896 0.012 6.21196 0.06C2.57996 0.227 0.560961 2.242 0.394961 5.877C0.345961 6.944 0.334961 7.284 0.334961 10C0.334961 12.716 0.345961 13.057 0.394961 14.123C0.560961 17.755 2.57596 19.773 6.21096 19.94C7.27896 19.988 7.61896 20 10.334 20C13.05 20 13.391 19.988 14.458 19.94C18.086 19.773 20.109 17.758 20.274 14.123C20.323 13.057 20.334 12.716 20.334 10C20.334 7.284 20.323 6.944 20.274 5.878C20.111 2.249 18.094 0.228 14.459 0.06C13.391 0.01 13.05 0 10.334 0ZM10.334 4.865C8.97207 4.865 7.66597 5.40601 6.70297 6.36901C5.73997 7.33201 5.19896 8.63811 5.19896 10C5.19896 11.3619 5.73997 12.668 6.70297 13.631C7.66597 14.594 8.97207 15.135 10.334 15.135C11.6958 15.135 13.002 14.594 13.965 13.631C14.928 12.668 15.469 11.3619 15.469 10C15.469 8.63811 14.928 7.33201 13.965 6.36901C13.002 5.40601 11.6958 4.865 10.334 4.865ZM10.334 13.333C9.45 13.333 8.60223 12.9818 7.97717 12.3568C7.35212 11.7317 7.00096 10.884 7.00096 10C7.00096 9.11603 7.35212 8.26827 7.97717 7.64321C8.60223 7.01815 9.45 6.667 10.334 6.667C11.2179 6.667 12.0657 7.01815 12.6907 7.64321C13.3158 8.26827 13.667 9.11603 13.667 10C13.667 10.884 13.3158 11.7317 12.6907 12.3568C12.0657 12.9818 11.2179 13.333 10.334 13.333ZM15.673 3.463C15.5154 3.46293 15.3593 3.49391 15.2137 3.55415C15.0681 3.6144 14.9358 3.70273 14.8243 3.81412C14.7128 3.9255 14.6244 4.05775 14.564 4.20332C14.5036 4.34888 14.4725 4.50491 14.4725 4.6625C14.4724 4.82009 14.5034 4.97614 14.5636 5.12176C14.6239 5.26737 14.7122 5.3997 14.8236 5.51117C14.935 5.62265 15.0672 5.7111 15.2128 5.77146C15.3583 5.83183 15.5144 5.86293 15.672 5.863C15.9902 5.863 16.2954 5.73657 16.5205 5.51153C16.7455 5.28648 16.872 4.98126 16.872 4.663C16.872 4.34474 16.7455 4.03952 16.5205 3.81447C16.2954 3.58943 15.9902 3.463 15.672 3.463H15.673Z" fill="black"/>
</g>
<defs>
<clipPath id="clip0_830_2226">
<rect width="21" height="20" fill="white" transform="translate(0.000976562)"/>
</clipPath>
</defs>
</svg>
