<svg width="20" height="20" viewBox="0 0 20 20" fill="none" xmlns="http://www.w3.org/2000/svg">
<g clip-path="url(#clip0_830_2224)">
<path d="M10.001 0C4.47898 0 0.000976562 4.477 0.000976562 10C0.000976562 14.237 2.63698 17.855 6.35698 19.312C6.26898 18.521 6.18998 17.307 6.39198 16.444C6.57398 15.664 7.56398 11.474 7.56398 11.474C7.56398 11.474 7.26498 10.874 7.26498 9.988C7.26498 8.598 8.07098 7.56 9.07498 7.56C9.92698 7.56 10.339 8.2 10.339 8.968C10.339 9.826 9.79398 11.108 9.51098 12.298C9.27498 13.293 10.011 14.105 10.991 14.105C12.769 14.105 14.135 12.231 14.135 9.525C14.135 7.132 12.415 5.457 9.95798 5.457C7.11298 5.457 5.44298 7.592 5.44298 9.797C5.44298 10.656 5.77398 11.578 6.18798 12.078C6.22341 12.1159 6.2484 12.1624 6.26049 12.2129C6.27259 12.2634 6.27137 12.3161 6.25698 12.366L5.97898 13.499C5.93498 13.682 5.83398 13.722 5.64398 13.633C4.39498 13.052 3.61398 11.226 3.61398 9.759C3.61398 6.605 5.90598 3.707 10.222 3.707C13.691 3.707 16.387 6.18 16.387 9.483C16.387 12.93 14.214 15.703 11.197 15.703C10.184 15.703 9.23198 15.178 8.90598 14.555L8.28298 16.933C8.05698 17.802 7.44798 18.891 7.03898 19.554C7.97598 19.844 8.96998 20 10.001 20C15.523 20 20.001 15.523 20.001 10C20.001 4.477 15.523 0 10.001 0Z" fill="black"/>
</g>
<defs>
<clipPath id="clip0_830_2224">
<rect width="20" height="20" fill="white" transform="translate(0.000976562)"/>
</clipPath>
</defs>
</svg>
