<svg width="20" height="17" viewBox="0 0 20 17" fill="none" xmlns="http://www.w3.org/2000/svg">
<path d="M20.001 1.924C19.2521 2.25598 18.4575 2.47374 17.644 2.57C18.5011 2.05762 19.1424 1.2507 19.448 0.300004C18.6424 0.778067 17.7611 1.11492 16.842 1.296C16.4582 0.886271 15.9944 0.559798 15.4791 0.336853C14.9639 0.113909 14.4084 -0.000747251 13.847 3.66472e-06C11.198 3.66472e-06 9.252 2.472 9.85 5.038C8.21856 4.95637 6.62253 4.53251 5.16556 3.79394C3.70859 3.05538 2.42324 2.01862 1.393 0.751004C0.868744 1.65448 0.708256 2.7237 0.944166 3.74128C1.18008 4.75885 1.79468 5.64838 2.663 6.229C2.01136 6.20909 1.37395 6.03353 0.804 5.717C0.759 7.618 2.121 9.397 4.094 9.792C3.48971 9.95608 2.85594 9.98003 2.241 9.862C2.5029 10.6776 3.01335 11.3909 3.70085 11.902C4.38836 12.413 5.2185 12.6963 6.075 12.712C4.35517 14.0611 2.17025 14.6725 0 14.412C1.87628 15.6174 4.05989 16.2572 6.29 16.255C13.908 16.255 18.212 9.821 17.952 4.05C18.7553 3.46912 19.4488 2.74991 20 1.926L20.001 1.924Z" fill="black"/>
</svg>
